<svg fill="none" height="512" viewBox="0 0 128 128" width="512" xmlns="http://www.w3.org/2000/svg"><path clip-rule="evenodd" d="m46 51v-27c0-5.5228 4.4772-10 10-10h48c5.523 0 10 4.4772 10 10v36c0 4.8379-3.436 8.8734-8 9.8v34.2c0 5.523-4.477 10-10 10h-32c-5.5228 0-10-4.477-10-10v-26h-12v11c0 5.5229-4.4772 10-10 10h-8c-5.5228 0-10-4.4772-10-10v-49c0-5.5229 4.4772-10 10-10h8c5.5228 0 10 4.4772 10 10v11zm-4 8v11h12v-.2c-4.5645-.9266-8-4.9621-8-9.8v-1zm64 1v-36c0-1.1046-.895-2-2-2h-48c-1.1046 0-2 .8954-2 2v36c0 1.1046.8954 2 2 2h48c1.105 0 2-.8954 2-2zm-8 10h-14v1.7477l14 3.4058zm-22 0h-14v5.1933l14-3.2638zm22 13.3868v10.7667l-14-3.4058v-10.7667zm-36 10.8065 14-3.2638v-10.7855l-14 3.2639zm14 11.8067v-6.856l-14 3.264v1.592c0 1.105.8954 2 2 2zm8-7.019v7.019h12c1.1046 0 2-.895 2-2v-1.613zm-50-9.981v-49c0-1.1046-.8954-2-2-2h-8c-1.1046 0-2 .8954-2 2v49c0 1.1046.8954 2 2 2h8c1.1046 0 2-.8954 2-2z" fill="#000" fill-rule="evenodd"/><path d="m104 70c5.523 0 10-4.4772 10-10v-36c0-5.5228-4.477-10-10-10h-48c-5.5228 0-10 4.4772-10 10v36c0 5.5228 4.4772 10 10 10z" fill="#1977cc"/></svg>