<svg id="Layer_1" enable-background="new 0 0 33 33" height="33" viewBox="0 0 33 33" width="33" xmlns="http://www.w3.org/2000/svg"><g><path d="m14.062 6.48-.549-.951c-.15-.262-.486-.352-.749-.199l-7.597 4.385c-.263.152-.353.488-.201.75l.549.949c.151.262.486.352.749.201l7.597-4.387c.263-.15.352-.486.201-.748z" fill="#00a79d"/><path d="m14.769 8.801c-.142-.246-.456-.33-.702-.188l-.148.086-.411-.713-6.41 3.701.41.713-.148.086c-.245.141-.33.455-.188.701.143.246.457.33.703.188l6.706-3.871c.246-.143.33-.457.188-.703z" fill="#414042"/><path d="m15.968 10.879c-.142-.246-.456-.33-.702-.189l-.148.086-.411-.711-6.41 3.701.411.711-.148.086c-.245.143-.33.457-.188.703.142.244.456.33.702.188l6.707-3.873c.245-.142.33-.456.187-.702z" fill="#414042"/><path d="m15.889 12.111-6.41 3.701 2.304 4.035c.091-.42.218-.826.38-1.215l-.876-1.539c-.151-.264-.062-.598.201-.75l3.857-2.227c.263-.152.598-.063.749.201l.215.371c.298-.105.604-.193.917-.26z" fill="#414042"/><path d="m23.331 6.48.548-.951c.151-.262.487-.352.749-.199l7.598 4.385c.263.152.352.488.2.75l-.548.949c-.151.262-.486.352-.749.201l-7.597-4.387c-.262-.15-.352-.486-.201-.748z" fill="#00a79d"/><path d="m22.624 8.801c.142-.246.456-.33.702-.188l.148.086.411-.713 6.41 3.701-.41.713.148.086c.245.141.33.455.188.701s-.456.33-.702.188l-6.707-3.871c-.246-.143-.331-.457-.188-.703z" fill="#414042"/><path d="m21.424 10.879c.143-.246.457-.33.703-.189l.147.086.411-.711 6.411 3.701-.411.711.148.086c.245.143.33.457.188.703-.142.244-.456.33-.702.188l-6.707-3.873c-.245-.142-.33-.456-.188-.702z" fill="#414042"/><path d="m21.504 12.111 6.41 3.701-2.304 4.035c-.091-.42-.218-.826-.38-1.215l.876-1.539c.151-.264.062-.598-.201-.75l-3.857-2.227c-.263-.152-.598-.063-.749.201l-.215.371c-.298-.105-.604-.193-.919-.26z" fill="#414042"/><path d="m18.696 14.961c-3.529 0-6.391 2.861-6.391 6.393 0 3.529 2.862 6.391 6.391 6.391s6.391-2.861 6.391-6.391c0-3.532-2.861-6.393-6.391-6.393zm0 10.949c-2.517 0-4.557-2.041-4.557-4.557 0-2.518 2.04-4.559 4.557-4.559s4.558 2.041 4.558 4.559c0 2.516-2.041 4.557-4.558 4.557z" fill="#414042"/><g fill="#00a79d"><circle cx="18.696" cy="17.445" r=".429"/><circle cx="14.791" cy="21.353" r=".429"/><circle cx="18.696" cy="25.26" r=".429"/><circle cx="22.603" cy="21.353" r=".429"/><path d="m18.696 18.219c-1.73 0-3.133 1.402-3.133 3.135 0 1.73 1.403 3.133 3.133 3.133s3.134-1.402 3.134-3.133c0-1.733-1.403-3.135-3.134-3.135zm1.248 1.279c.167-.166.438-.166.605 0 .168.168.168.439 0 .607-.167.166-.438.166-.605-.002-.168-.165-.168-.437 0-.605zm-3.869 1.856c0-.238.192-.43.429-.43s.429.191.429.43c0 .236-.191.428-.429.428-.237-.001-.429-.192-.429-.428zm1.373 1.853c-.167.166-.438.166-.605 0-.168-.168-.168-.439 0-.605.167-.168.438-.168.605 0 .167.166.167.437 0 .605zm0-3.102c-.167.166-.438.166-.605 0-.168-.168-.168-.439 0-.607.167-.166.438-.166.605 0 .167.168.167.44 0 .607zm1.248 3.87c-.236 0-.429-.191-.429-.43 0-.236.192-.428.429-.428s.429.191.429.428c0 .238-.191.43-.429.43zm0-4.387c-.236 0-.429-.191-.429-.428 0-.238.192-.43.429-.43s.429.191.429.43c0 .236-.192.428-.429.428zm1.854 3.619c-.167.166-.438.166-.605 0-.168-.168-.168-.439 0-.605.167-.168.438-.168.605 0 .168.166.168.437 0 .605zm.34-1.426c-.237 0-.429-.191-.429-.428 0-.238.191-.43.429-.43.236 0 .428.191.428.43-.001.237-.192.428-.428.428z"/></g><g fill="#414042"><path d="m13.832 26.441h-11.687v-2.811h.426c.262.904 1.053 2.135 2.778 2.135h7.869c-.368-.455-.678-.961-.924-1.5h-6.945c-.629 0-.97-.316-1.159-.635h7.844c-.074-.217-.139-.441-.192-.668h-9.122v-.428h9.035c-.042-.248-.071-.5-.087-.754h-8.948v-.428h8.935c0-.465.046-.916.131-1.355h-10.738c-.303 0-.548.246-.548.549v6.648c0 .303.245.549.548.549h14.692c-.708-.327-1.352-.768-1.908-1.302z"/><path d="m14.791 24.266h-.168c.052.072.113.135.168.203z"/></g></g></svg>