<svg fill="none" height="512" viewBox="0 0 128 128" width="512" xmlns="http://www.w3.org/2000/svg"><g clip-rule="evenodd" fill-rule="evenodd"><path d="m25 38.3283v12.005c0 4.5814 3.1871 8.4185 7.4651 9.4149.232.7892.5462 1.5431.9329 2.2518h-14.398c-2.7614 0-5 2.2386-5 5v9c0 2.7614 2.2386 5 5 5h7.5v10.6296c-3.7967 1.4187-6.5 5.0789-6.5 9.3704v8c0 2.761 2.2386 5 5 5h11c2.7614 0 5-2.239 5-5h46c0 2.761 2.2386 5 5 5h11c2.761 0 5-2.239 5-5v-8c0-4.2915-2.703-7.9517-6.5-9.3704v-10.6296h7.5c2.761 0 5-2.2386 5-5v-9c0-2.7614-2.239-5-5-5h-16.398c.3471-.6361.6358-1.3087.859-2.0104 5.3089-.2409 9.539-4.6213 9.539-9.9896v-4.3448c0-6.579-4.2355-12.1687-10.1284-14.1912-1.8997-1.0077-4.4725-.8088-6.5619-.8088-1.7448 0-3.3635-.9096-4.2708-2.3999l-2.8345-4.6558c-3.6294-5.9613-10.1038-9.5995-17.083-9.5995h-10.9482c-6.3838 0-12.0371 4.122-13.9892 10.2l-1.367 4.2563c-.5477 1.7052-2.1139 2.5437-3.817 2.5437-3.847 0-7 3.5962-7 7.3283zm70 11.6717v-4.3448c0-3.1063-2.0233-5.7401-4.824-6.6552h-26.176c-2.7614 0-5-2.2386-5-5v-12h-3v12c0 2.7614-2.2386 5-5 5h-18v11.3333c0 .3354.0991.6476.2695.9091 1.909-3.7071 5.7737-6.2424 10.2305-6.2424 4.7543 0 8.8348 2.8851 10.5862 7h17.8276c1.7514-4.1149 5.8319-7 10.5862-7 4.7536 0 8.8336 2.8842 10.5855 6.9982 1.0649-.0448 1.9145-.9223 1.9145-1.9982zm-51.598-19h4.598v-8.2001c-1.4886.802-2.6571 2.1587-3.1992 3.8464-.4778 1.4428-.9247 2.9206-1.3988 4.3537zm23.598 0h7.3439l-1.9727-3.2403c-1.2892-2.1175-3.1767-3.7465-5.3712-4.7233zm-12.5423 29c-.2228.698-.5104 1.367-.8557 2h18.796c-.3453-.633-.6329-1.302-.8557-2zm24.5423-3.5c0-1.933 1.567-3.5 3.5-3.5s3.5 1.567 3.5 3.5-1.567 3.5-3.5 3.5-3.5-1.567-3.5-3.5zm27 13.5v3h-84v-3zm-12.5 11v10.6296c-3.7967 1.4187-6.5 5.0789-6.5 9.3704h-46c0-4.2915-2.7033-7.9517-6.5-9.3704v-10.6296zm-62.5 18c1.1046 0 2 .8954 2 2v5h-5v-5c0-1.1046.8954-2 2-2zm66 0c-1.1046 0-2 .8954-2 2v5h5v-5c0-1.1046-.8954-2-2-2zm-57-42.5c0-1.933 1.567-3.5 3.5-3.5s3.5 1.567 3.5 3.5-1.567 3.5-3.5 3.5-3.5-1.567-3.5-3.5z" fill="#000"/><path d="m41 109c0 2.761-2.2386 5-5 5h-11c-2.7614 0-5-2.239-5-5v-8c0-5.5228 4.4772-10 10-10h1c5.5228 0 10 4.4772 10 10zm67 0c0 2.761-2.239 5-5 5h-11c-2.7614 0-5-2.239-5-5v-8c0-5.5228 4.4771-10 10-10h1c5.523 0 10 4.4772 10 10z" fill="#1977cc"/></g></svg>