<svg fill="none" height="512" viewBox="0 0 128 128" width="512" xmlns="http://www.w3.org/2000/svg"><g clip-rule="evenodd" fill-rule="evenodd"><path d="m99 53c8.284 0 15 6.7157 15 15v12c0 5.5228-4.477 10-10 10h-3.458c-1.5418 5.7591-6.7966 10-13.042 10s-11.5002-4.2409-13.0419-10h-23.9162c-1.5417 5.7591-6.7965 10-13.0419 10s-11.5002-4.2409-13.0419-10c-5.6117 0-10.4581-4.192-10.4581-10v-17.8794c0-5.0372 4.0834-9.1206 9.1206-9.1206 1.759 0 3.3611-1.0116 4.1173-2.5997l4.6902-9.8493c2.4874-5.2236 7.7573-8.551 13.5429-8.551h19.3879c6.9263 0 13.3596 3.5837 17.0053 9.4729l4.9729 8.0332 9.6525-9.6525c2.7875-2.7876 6.5684-4.3536 10.5104-4.3536 2.209 0 4 1.7909 4 4s-1.791 4-4 4c-1.82 0-3.566.7232-4.854 2.0104l-7.4891 7.4896zm2 10h2.899c-1.263-1.2372-2.992-2-4.899-2h-39c-2.7614 0-5-2.2386-5-5v-16h-6v16c0 2.7614-2.2386 5-5 5-6.9592 0-13.9212 0-20.8794 0-.6189 0-1.1206.5017-1.1206 1.1206v.8794h1.5c2.2091 0 4 1.7909 4 4s-1.7909 4-4 4h-1.5v9c0 1.6358 1.4595 2 2.7682 2 1.8532-5.2434 6.8538-9 12.7318-9s10.8786 3.7566 12.7318 9h24.5364c1.8532-5.2434 6.8538-9 12.7318-9s10.8786 3.7566 12.732 9h3.768c1.105 0 2-.8954 2-2v-9h-5c-2.2091 0-4-1.7909-4-4s1.7909-4 4-4zm-60-10h-6.1393l4.2903-9.0095c.4452-.935 1.0814-1.7398 1.849-2.3767zm38.5912 0-4.5291-7.3163c-2.1875-3.5335-6.0474-5.6837-10.2032-5.6837h-1.8589v13zm2.4088 33.5c0-3.0376 2.4624-5.5 5.5-5.5s5.5 2.4624 5.5 5.5-2.4624 5.5-5.5 5.5-5.5-2.4624-5.5-5.5zm-44.5-5.5c-3.0376 0-5.5 2.4624-5.5 5.5s2.4624 5.5 5.5 5.5 5.5-2.4624 5.5-5.5-2.4624-5.5-5.5-5.5z" fill="#000"/><path d="m32 86.5c0-3.0376 2.4624-5.5 5.5-5.5s5.5 2.4624 5.5 5.5-2.4624 5.5-5.5 5.5-5.5-2.4624-5.5-5.5zm5.5-13.5c-7.4558 0-13.5 6.0442-13.5 13.5s6.0442 13.5 13.5 13.5 13.5-6.0442 13.5-13.5-6.0442-13.5-13.5-13.5zm44.5 13.5c0-3.0376 2.4624-5.5 5.5-5.5s5.5 2.4624 5.5 5.5-2.4624 5.5-5.5 5.5-5.5-2.4624-5.5-5.5zm5.5-13.5c-7.4558 0-13.5 6.0442-13.5 13.5s6.0442 13.5 13.5 13.5 13.5-6.0442 13.5-13.5-6.0442-13.5-13.5-13.5z" fill="#1977cc"/></g></svg>