<svg fill="none" height="512" viewBox="0 0 128 128" width="512" xmlns="http://www.w3.org/2000/svg"><g clip-rule="evenodd" fill-rule="evenodd"><path d="m64.9932 96h-45.9932c-2.7614 0-5-2.2386-5-5v-72c0-2.7614 2.2386-5 5-5h35.5982c18.25 0 34.1861 12.3527 38.7366 30.0263l5.68 22.0604c8.8212 3.8611 14.9852 12.6674 14.9852 22.9133 0 13.807-11.193 25-25 25-11.3772 0-20.9794-7.6-24.0068-18zm4.7966-23h-39.7898c-2.7614 0-5-2.2386-5-5v-18-.0125-20.9875c0-2.7614 2.2386-5 5-5h23.5006c13.8361 0 25.8777 9.4626 29.1493 22.9063 1.3942 5.729 2.793 11.4567 4.1854 17.1861 1.1149-.0956 2.2626-.1172 3.3889-.063l-4.6367-18.0084c-3.6404-14.1389-16.3893-24.021-30.9893-24.021h-32.5982v66h42.0196c.2241-5.6964 2.3542-10.9031 5.7702-15zm-3.3161-20c5.4283 0 10.1658 3.6412 11.5805 8.8544l.7655 3.1456h-35.8197v-2c0-2.2091-1.7909-4-4-4s-4 1.7909-4 4v2h-2v-12zm7.7288-6.448c-3.1068-8.6505-11.3447-14.552-20.7019-14.552h-20.5006v13h33.4737c2.7201 0 5.3361.5486 7.7288 1.552zm31.7975 42.448c0 9.3888-7.6112 17-17 17s-17-7.6112-17-17 7.6112-17 17-17 17 7.6112 17 17z" fill="#000"/><path d="m89 114c13.807 0 25-11.193 25-25 0-13.8071-11.193-25-25-25-13.8071 0-25 11.1929-25 25 0 13.807 11.1929 25 25 25zm0-40c2.2091 0 4 1.7909 4 4v10.5c0 2.2091-1.7909 4-4 4s-4-1.7909-4-4v-10.5c0-2.2091 1.7909-4 4-4zm4 26c0 2.209-1.7909 4-4 4s-4-1.791-4-4c0-2.2091 1.7909-4 4-4s4 1.7909 4 4z" fill="#1977cc"/></g></svg>