<svg fill="none" height="512" viewBox="0 0 128 128" width="512" xmlns="http://www.w3.org/2000/svg"><g clip-rule="evenodd" fill-rule="evenodd"><path d="m72.442 14.0008h-.0089c-10.7026.0009-21.4055.0017-32.108-.0008-7.337 0-13.6088 13.1623-16.135 31.7514-3.633 1.4982-6.1901 5.0748-6.1901 9.2486v17c0 4.1204 2.492 7.6587 6.0511 9.1901 2.4288 19.1459 8.7985 32.8099 16.274 32.8099 16.0582-.004 32.1171 0 48.1749 0 9.665 0 17.5-22.3858 17.5-50s-7.835-50-17.5-50c-5.3525 0-10.7054.0004-16.058.0008zm-25.2771 30.9992h-14.7833c.5068-3.306 1.1379-6.3739 1.8671-9.1493l13.6876 4.1063c-.2873 1.6233-.5449 3.3063-.7714 5.043zm25.1428 0h-16.9262c.2592-1.6901.5508-3.3179.8713-4.8763l17.7393-4.0937c-.6627 2.8009-1.2288 5.8039-1.6844 8.97zm12.6923 10c0-3.4402-1.7372-6.4747-4.3822-8.2741.4313-2.0958.9332-3.9925 1.4864-5.6519.8316-2.4949.96-2.4949 1.7916 0 1.8331 5.4993 3.1042 13.6054 3.1042 22.926s-1.2711 17.4267-3.1042 22.926c-.8316 2.4949-.96 2.4949-1.7916 0-.6299-1.8895-1.1934-4.0868-1.6617-6.5354 2.7433-1.783 4.5575-4.8749 4.5575-8.3906zm-29.7669 27h16.9352c.2379 1.7609.5097 3.4737.8131 5.1319l-.0431.0116-.0372.0104-15.7786 4.5082c-.7479-2.9271-1.3874-6.1683-1.8894-9.6621zm-23 0h14.9235c.4643 3.4713 1.0589 6.7555 1.7666 9.8026l-15.7053-4.097c-.3692-1.8126-.6993-3.7182-.9848-5.7056zm27.3607 17.2761 15.1595-4.3313c1.1919 4.3165 2.6275 8.0582 4.2476 11.0552h-15.2464c-2.0537-1.514-3.2312-4.475-4.1607-6.7239zm-5.6729 6.7239c-.8312-1.553-1.6133-3.306-2.3382-5.236l-15.9995-4.1737.0503.1458c1.0394 2.9998 2.4035 7.2609 5.121 9.2639zm22.7294-78.7937c.729-1.9178 1.5153-3.661 2.3506-5.2063h-15.2464c-2.9123 2.1466-4.0342 6.1161-5.1586 9.3727zm-26.972 4.9211c1.0982-3.9928 2.4161-7.4151 3.9172-10.1274h-12.841c-1.9288 1.4217-3.0636 4.1537-3.9657 6.2605zm48.3217 31.8726c0 13.1529-1.8785 24.7182-4.6765 32.7125-2.9125 8.3215-4.6646 11.9025-8.5297 2.888 5.7766-2.5976 10.2062-17.5472 10.2062-35.6005s-4.4296-33.0029-10.2062-35.6005c3.7869-8.8317 5.8203-4.8532 8.5297 2.888 2.798 7.9943 4.6765 19.5596 4.6765 32.7125zm-23-11h-47c-1.1046 0-2 .8954-2 2v17c0 1.1046.8954 2 2 2h47c1.1046 0 2-.8954 2-2v-17c0-1.1046-.8954-2-2-2z" fill="#000"/><path d="m28 45c-5.5228 0-10 4.4772-10 10v17c0 5.5228 4.4772 10 10 10h47c5.5228 0 10-4.4772 10-10v-17c0-5.5228-4.4772-10-10-10zm1.5444 10.8428c-1.7438 1.3563-2.0579 3.8694-.7016 5.6131l1.5899 2.0443-1.5899 2.0442c-1.3563 1.7438-1.0422 4.2569.7016 5.6132s4.2569 1.0421 5.6132-.7017l.3426-.4404.3426.4404c1.3563 1.7438 3.8694 2.058 5.6131.7017 1.7438-1.3563 2.058-3.8694.7017-5.6132l-1.59-2.0442 1.59-2.0443c1.3563-1.7437 1.0421-4.2568-.7017-5.6131-1.7437-1.3563-4.2568-1.0422-5.6131.7016l-.3426.4405-.3426-.4405c-1.3563-1.7438-3.8694-2.0579-5.6132-.7016zm28.9115 0c1.7438 1.3563 2.058 3.8694.7017 5.6131l-1.59 2.0443 1.59 2.0442c1.3563 1.7438 1.0421 4.2569-.7017 5.6132-1.7437 1.3563-4.2568 1.0421-5.6131-.7017l-.3426-.4404-.3426.4404c-1.3563 1.7438-3.8694 2.058-5.6132.7017s-2.0579-3.8694-.7016-5.6132l1.5899-2.0442-1.5899-2.0443c-1.3563-1.7437-1.0422-4.2568.7016-5.6131s4.2569-1.0422 5.6132.7016l.3426.4405.3426-.4405c1.3563-1.7438 3.8694-2.0579 5.6131-.7016zm17.7017 5.6131c1.3563-1.7437 1.0421-4.2568-.7016-5.6131-1.7438-1.3563-4.2569-1.0422-5.6132.7016l-.3426.4405-.3426-.4405c-1.3563-1.7438-3.8694-2.0579-5.6132-.7016s-2.0579 3.8694-.7016 5.6131l1.5899 2.0443-1.5899 2.0442c-1.3563 1.7438-1.0422 4.2569.7016 5.6132s4.2569 1.0421 5.6132-.7017l.3426-.4404.3426.4404c1.3563 1.7438 3.8694 2.058 5.6131.7017 1.7438-1.3563 2.058-3.8694.7017-5.6132l-1.59-2.0442z" fill="#1977cc"/></g></svg>