<svg fill="none" height="512" viewBox="0 0 128 128" width="512" xmlns="http://www.w3.org/2000/svg"><g fill="#000"><path d="m108 39c2.209 0 4-1.7909 4-4s-1.791-4-4-4-4 1.7909-4 4 1.791 4 4 4z"/><path clip-rule="evenodd" d="m43 78h-12c-2.7614 0-5-2.2386-5-5v-4.6h-7c-2.7614 0-5-2.2386-5-5v-8.4c0-2.7614 2.2386-5 5-5h7v-5c0-2.7614 2.2386-5 5-5h42c2.7614 0 5 2.2386 5 5v5h5.1001c.6863 0 1.3653.1413 1.9947.4151l10.0438 4.3698c2.6376 1.1476 3.7654 4.2785 2.4655 6.8445l-3.6813 7.2667c-1.1752 2.3197-3.9322 3.3514-6.3415 2.3731l-6.161-2.5018c-.5975-.2427-1.2362-.3674-1.8811-.3674h-1.5392v4.6c0 2.7614-2.2386 5-5 5h-11v-8h8v-22h-36v22h9zm36.5392-17.6h-1.5392v-2.4h4.4757l6.5544 2.8516-.9964 1.9668-3.6035-1.4632c-1.5535-.6309-3.2143-.9552-4.891-.9552zm-53.5392 0v-2.4h-4v2.4z" fill-rule="evenodd"/><path d="m100 94c2.209 0 4-1.7909 4-4s-1.791-4-4-4c-2.2091 0-4 1.7909-4 4s1.7909 4 4 4z"/><path d="m97.8124 39.5515c-4.7788-6.0889-14.9594-5.2449-18.2406 2.5319-.9288 2.2012-.5959 4.8081 1.8732 5.8499 2.4691 1.0417 4.5688-.5388 5.4975-2.7399.9297-2.2035 4.0523-2.2035 4.982 0 .9935 2.3548 3.6947 3.4728 6.0612 2.5112 2.2253-.9042 4.4453 1.2988 3.5653 3.5276l-.064.1615c-.928 2.3484.175 5.0082 2.49 6.0129 2.268.9843 2.268 4.2026 0 5.1869-2.315 1.0046-3.418 3.6645-2.49 6.0128l.064.1615c.88 2.2288-1.34 4.4318-3.5653 3.5277-2.3665-.9616-5.0677.1563-6.0612 2.5112-.9297 2.2034-4.0523 2.2034-4.982 0-.9287-2.2012-3.0284-3.7817-5.4975-2.7399s-2.802 3.6487-1.8732 5.8498c3.2812 7.7769 13.4618 8.6208 18.2406 2.5319 6.8066.8223 12.7826-5.1812 11.8626-12.018 5.337-4.248 5.337-12.6129 0-16.8609.92-6.8368-5.056-12.8404-11.8626-12.0181z"/></g><path clip-rule="evenodd" d="m56.3301 57.5c-1.9245-3.3333-6.7357-3.3333-8.6602 0l-19.9186 34.5c-1.9245 3.3333.4811 7.5 4.3301 7.5h39.8372c3.849 0 6.2546-4.1667 4.3301-7.5zm-4.3301 10.5c2.2091 0 4 1.7909 4 4v8.5c0 2.2091-1.7909 4-4 4s-4-1.7909-4-4v-8.5c0-2.2091 1.7909-4 4-4zm4 23c0 2.2091-1.7909 4-4 4s-4-1.7909-4-4 1.7909-4 4-4 4 1.7909 4 4z" fill="#1977cc" fill-rule="evenodd"/></svg>