<svg id="Layer_1" enable-background="new 0 0 33 33" height="33" viewBox="0 0 33 33" width="33" xmlns="http://www.w3.org/2000/svg"><g><g><path d="m29.099 26.662c.17.594-.189 1.168-.799 1.275l-5.537.977c-.609.107-1.145-.309-1.188-.926l-.871-12.23c-.043-.617.42-1.209 1.027-1.316l2.586-.457c.607-.107 1.246.291 1.416.887z" fill="#00a79d"/></g><path d="m23.683 13.379c-1.586-6.773-5.393-9.426-8.561-10.43-.096-1.355-1.225-2.428-2.604-2.428-.459 0-.889.119-1.264.328l-7.395-.349s.638 1.672 1.97 1.734c.789.039 2.725.129 4.174.197-.029.111-.053.223-.07.34-1.543.567-3.399 1.25-4.2 1.545-1.479.545-1.605 2.66-1.605 2.66l6.277-2.311c.475.654 1.244 1.082 2.113 1.082.92 0 1.73-.479 2.195-1.201 3.734 1.215 6.199 4.277 7.348 9.117zm-11.164-9.27c-.537 0-.975-.438-.975-.975s.438-.973.975-.973.975.436.975.973-.438.975-.975.975z" fill="#00a79d"/><path d="m17.845 10.635c0-1.709-.25-2.852-2.047-3.145-1.258-.205-1.434-.818-1.434-1.434 0-.076 0-.154 0-.232-.525.361-1.16.574-1.846.574s-1.32-.213-1.846-.574v.232c0 .615-.176 1.229-1.434 1.434-1.798.293-2.046 1.436-2.046 3.145 0 .129-.004 20.225-.004 20.225 0 .906.734 1.641 1.641 1.641h7.379c.906 0 1.641-.734 1.641-1.641 0-.001-.004-20.096-.004-20.225zm-1.983 13.314c-.936 2.434-2.857 2.316-2.857 2.316 2.395-3.352-.668-5.254-.668-5.254s.535.98-.721 2.508c-.887 1.074.088 2.744.088 2.744-.902.014-2.807-1.494-2.807-3.545s1.375-3.396 1.375-3.396c.273.566.633.857.633.857-.662-3.357 2.049-4.436 2.049-4.436-.416 1.93.361 2.936 1.203 3.875.053-.508.088-1.283-.078-1.969 0 .001 2.961 3.232 1.783 6.3z" fill="#414042"/></g></svg>