<svg id="Layer_1" enable-background="new 0 0 33 33" height="33" viewBox="0 0 33 33" width="33" xmlns="http://www.w3.org/2000/svg"><g><path d="m28.029 8.067v7.608h-6.406v-7.608h-2.002v7.608h-6.406v-7.608h-2.002v7.608h-6.407v-7.608h-2.002v9.61h8.409v7.607h2.002v-7.607h6.406v7.607h2.002v-7.607h6.406v7.607h2.004v-17.217z" fill="#414042"/><g><path d="m1.959.583h2.302c.744 0 1.259.195 1.585.528.286.279.432.654.432 1.134v.014c0 .744-.396 1.238-1.001 1.495l1.161 1.696h-1.558l-.98-1.474h-.591v1.474h-1.35zm2.24 2.337c.459 0 .724-.223.724-.577v-.014c0-.383-.278-.578-.73-.578h-.884v1.169z" fill="#00a79d"/></g><g><path d="m12.088 1.808-.82.188-.257-1.043 1.426-.404h.979v4.901h-1.328z" fill="#00a79d"/></g><g><path d="m18.697 4.435 1.822-1.39c.451-.354.625-.585.625-.876 0-.307-.217-.494-.543-.494s-.584.188-.967.626l-.91-.758c.522-.675 1.038-1.043 1.983-1.043 1.063 0 1.793.633 1.793 1.55v.015c0 .778-.402 1.182-1.127 1.703l-.834.585h2.01v1.097h-3.852z" fill="#00a79d"/></g><g><path d="m27.057 4.686.848-.849c.348.355.717.557 1.162.557.381 0 .625-.195.625-.494v-.014c0-.313-.285-.5-.793-.5h-.57l-.193-.703 1.119-1.008h-1.863v-1.092h3.518v.967l-1.16.994c.695.153 1.258.543 1.258 1.369v.015c0 .987-.793 1.62-1.877 1.62-.942 0-1.602-.341-2.074-.862z" fill="#00a79d"/></g><g><path d="m12.541 31.457h-2.356l-.223-.952 2.523-3.004h1.362v2.947h.619v1.009h-.619v.946h-1.307v-.946zm0-1.001v-1.398l-1.162 1.398z" fill="#00a79d"/></g><g><path d="m18.631 31.728.771-.903c.396.334.771.528 1.182.528.445 0 .717-.223.717-.57v-.014c0-.348-.291-.563-.717-.563-.299 0-.549.104-.779.242l-.799-.444.139-2.468h3.255v1.111h-2.191l-.041.738c.221-.105.451-.175.777-.175.877 0 1.67.487 1.67 1.544v.014c0 1.084-.828 1.731-2.01 1.731-.863.001-1.466-.299-1.974-.771z" fill="#00a79d"/></g><g><path d="m27.619 31.943c-.361-.361-.598-.911-.598-1.821v-.014c0-1.516.738-2.67 2.26-2.67.682 0 1.154.188 1.619.535l-.633.952c-.299-.222-.576-.368-.965-.368-.57 0-.855.424-.918 1.036.258-.194.57-.376 1.051-.376.854 0 1.605.543 1.605 1.516v.015c0 1.091-.869 1.752-1.934 1.752-.686 0-1.139-.208-1.487-.557zm2.108-1.119v-.014c0-.348-.264-.626-.688-.626-.426 0-.676.271-.676.619v.014c0 .354.264.633.689.633s.675-.271.675-.626z" fill="#00a79d"/></g></g></svg>