<svg fill="none" height="512" viewBox="0 0 128 128" width="512" xmlns="http://www.w3.org/2000/svg"><g clip-rule="evenodd" fill-rule="evenodd"><path d="m71 19c0-2.7614-2.2386-5-5-5h-22c-2.7614 0-5 2.2386-5 5v10c0 2.4203 1.7197 4.4389 4.0038 4.9007-.0025.0884-.0038.177-.0038.2659 0 1.0126-.8208 1.8334-1.8333 1.8334h-9.1667c-5.5228 0-10 4.4771-10 10v58c0 5.523 4.4772 10 10 10h46c5.5228 0 10-4.477 10-10v-6.7246c10.9093-2.6874 19-12.5366 19-24.2754s-8.0907-21.588-19-24.2754v-2.7246c0-5.5229-4.4772-10-10-10h-9.1667c-1.0125 0-1.8333-.8208-1.8333-1.8334 0-.0889-.0013-.1775-.0038-.2659 2.2841-.4618 4.0038-2.4804 4.0038-4.9007zm-8 7v-4h-16v4zm17 71.9212c-3.5562-.2815-6.9029-1.3072-9.8845-2.9212h-40.1155v9c0 1.105.8954 2 2 2h46c1.1046 0 2-.895 2-2zm-23-24.9212c0 5.1873 1.5799 10.0056 4.2847 14h-31.2847v-41c0-1.1046.8954-2 2-2h9.1667c5.4308 0 9.8333-4.4026 9.8333-9.8334 0-.0565.004-.1122.0118-.1666h7.9764c.0078.0544.0118.1101.0118.1666 0 5.4309 4.4025 9.8334 9.8333 9.8334h9.1667c1.1046 0 2 .8954 2 2v2.0788c-12.872 1.0189-23 11.7873-23 24.9212zm25 17c9.3888 0 17-7.6112 17-17s-7.6112-17-17-17-17 7.6112-17 17 7.6112 17 17 17z" fill="#000"/><path d="m82 98c13.8071 0 25-11.1929 25-25s-11.1929-25-25-25-25 11.1929-25 25 11.1929 25 25 25zm2.8284-21.6716c1.5621-1.5621 1.5621-4.0947 0-5.6568s-4.0947-1.5621-5.6568 0l-7 7c-1.5621 1.5621-1.5621 4.0947 0 5.6568s4.0947 1.5621 5.6568 0z" fill="#1977cc"/></g></svg>