<svg fill="none" height="512" viewBox="0 0 128 128" width="512" xmlns="http://www.w3.org/2000/svg"><path clip-rule="evenodd" d="m31.8746 96.4377c-10.2553-10.2554-8.5258-27.3379 3.577-35.3296l51.7982-34.2036c3.9325-2.5967 9.1492-2.0685 12.4814 1.2637 3.3078 3.3081 3.8558 8.4775 1.3138 12.405l-33.7253 52.111c-7.9269 12.2478-25.1287 14.0698-35.4451 3.7535zm21.7348-37.7329 30.7133-20.2806c.4547 1.1017 1.1295 2.1336 2.0244 3.0286.9508.9508 2.0562 1.6531 3.2357 2.107l-19.9315 30.7975c-2.1704-7.665-8.3014-13.6662-16.0419-15.6525zm38.3946-22.9089c-.5081-.5081-.5266-1.3597.0158-1.9021.5425-.5425 1.3941-.524 1.9022-.0159s.5266 1.3597-.0158 1.9022c-.5425.5424-1.3941.5239-1.9022.0158zm-29.504 44.7041c0-8.0082-6.4919-14.5-14.5-14.5s-14.5 6.4918-14.5 14.5c0 8.0081 6.4919 14.5 14.5 14.5s14.5-6.4919 14.5-14.5z" fill="#000" fill-rule="evenodd"/><path clip-rule="evenodd" d="m24.0802 104.08c-15.24634-15.2462-12.6036-40.6577 5.4536-52.4405l52.0815-33.9846c8.1251-5.3018 18.8537-4.1861 25.7137 2.6742 6.8 6.7996 7.963 17.41 2.798 25.5214l-33.4009 52.4575c-11.6639 18.318-37.2899 21.128-52.6459 5.772zm9.8254-45.7407 52.0815-33.9846c4.9562-3.234 11.5005-2.5535 15.6849 1.6312 4.148 4.1477 4.858 10.62 1.707 15.5678l-33.4011 52.4575c-8.9155 14.0018-28.5032 16.1498-40.2409 4.412-11.6538-11.6537-9.6338-31.0775 4.1686-40.0839z" fill="#000" fill-rule="evenodd"/><path d="m85.863 27.7368c-3.9307 3.9307-3.9383 10.2959-.0171 14.2172 3.9213 3.9212 10.2865 3.9136 14.2171-.0171 3.931-3.9306 3.938-10.2959.017-14.2171-3.9211-3.9213-10.2864-3.9136-14.217.017z" fill="#1977cc"/></svg>