<svg fill="none" height="512" viewBox="0 0 128 128" width="512" xmlns="http://www.w3.org/2000/svg"><g fill="#000"><path clip-rule="evenodd" d="m91.7942 19.5c-3.4641-6-5.1243-7-8.5884-1l-2.0207 3.5h-38.0975c-6.2391 0-11.6486 10.1552-14.3171 25-.2891 1.6078.25 3.2706.8047 4.9815.5288 1.6312 1.0718 3.306.9248 5.0185-.1406 1.639-.9073 3.3124-1.6874 5.0152-.8974 1.9589-1.8126 3.9565-1.8126 5.9848 0 25.4051 7.2026 46 16.0876 46h44.9124c8.8366 0 16-20.5949 16-46 0-2.554-.072-8.0593-.212-10.5 9.212.1738 8.203-3.0187 4.461-9.5zm3.9804 38h-3.047c.1782 2.4094.2724 7.9202.2724 10.5 0 15.4687-3.3864 28.4515-7.9564 32.025 3.2285 7.895 4.0971 5.398 6.7059-2.1026l.0082-.0236c2.5306-7.2755 4.2423-17.8461 4.2423-29.8988 0-2.5735-.078-8.0793-.2254-10.5zm-11.0708 0h-4.4076c-.1914 2.3688-.2962 7.8811-.2962 10.5 0 8.1623 1.0183 15.2892 2.5 20.2632 1.4817-4.974 2.5-12.1009 2.5-20.2632 0-2.6189-.1048-8.1312-.2962-10.5zm-15.2038-4.1877c-.4448-1.075.4118-2.5311 1.3977-4.2072 1.1664-1.9828 2.5138-4.2734 2.1023-6.6051l-14.8726 3.526c-.6944 3.2834-1.246 6.9143-1.6134 10.8099zm6.5-19.8123 2.5663-3.5h-13.8053c-2.0417 1.7014-3.2174 4.6348-4.1234 7.1662zm-4 34.5c0 1.0076.0113 2.0076.0335 2.9991l-15.7945 4.6654c-.1562-2.4714-.239-5.0325-.239-7.6645 0-.9106.0099-1.8126.0293-2.7055l16.1725-4.6207c-.1328 2.3858-.2018 4.8328-.2018 7.3262zm-14.9485 15.7846 15.4125-4.7423c.3053 3.5627.755 6.962 1.3302 10.1436l-14.7745 4.5302c-.7933-2.9644-1.4628-6.3017-1.9682-9.9315zm-6.3267 9.7438c-.6879-2.9192-1.2612-6.0742-1.7016-9.4131l-13.4342-4.1336c.3515 3.4795.8491 6.7394 1.4629 9.7189zm-11.1729 5.1797 13.9889 3.9159c.487 1.209.9996 2.337 1.5354 3.376h-11.4094c-2.0477-1.761-3.2102-4.735-4.1149-7.2919zm22.0195 2.5929 14.0097-4.2954c.9752 3.4474 2.1207 6.4804 3.3995 8.9944h-14.2196c-1.4717-1.226-2.4341-2.917-3.1896-4.699zm-13.5714-33.301c0 2.5527.0733 5.0567.2143 7.4963l-13.167-4.0514c-.0312-1.1306-.0472-2.2765-.0473-3.4361 0 .0036.0005.0056.0005.0056l.0017-.005c.0009-.003.0022-.0076.0038-.0137.3216-1.2523.8752-2.4217 1.4293-3.5921.4464-.9428.893-1.8862 1.2189-2.8742l10.3875 3.1477c-.0277 1.0974-.0417 2.2055-.0417 3.3229zm.5145-11.5389c.337-3.7003.8324-7.22 1.4643-10.4977l-11.8912-4.0319c-.5 1.8439-.9601 3.8647-1.3645 6.0515.1983.8501.4324 1.6793.6648 2.5025.266.9426.5299 1.8774.7354 2.8268zm-7.7431-22.0669 11.1041 3.765c.9336-3.1035 2.0101-5.8505 3.2007-8.1592h-11.4056c-.3171.2543-1.0572.9828-2.1038 2.848-.267.4758-.5326.9915-.7954 1.5462zm53.2286-10.3942h-12v31h12z" fill-rule="evenodd"/><path d="m15.1716 43.1716c1.5621-1.5621 4.0947-1.5621 5.6568 0l5 5c1.5621 1.5621 1.5621 4.0947 0 5.6568s-4.0947 1.5621-5.6568 0l-5-5c-1.5621-1.5621-1.5621-4.0947 0-5.6568z"/><path d="m15.1716 68.8284c1.5621 1.5621 4.0947 1.5621 5.6568 0l5-5c1.5621-1.5621 1.5621-4.0947 0-5.6568s-4.0947-1.5621-5.6568 0l-5 5c-1.5621 1.5621-1.5621 4.0947 0 5.6568z"/></g><path clip-rule="evenodd" d="m92.3301 16.5c-1.9245-3.3333-6.7357-3.3333-8.6602 0l-19.9186 34.5c-1.9245 3.3333.4811 7.5 4.3301 7.5h39.8376c3.849 0 6.254-4.1667 4.33-7.5zm-4.3301 9.5c2.2091 0 4 1.7909 4 4v8.5c0 2.2091-1.7909 4-4 4s-4-1.7909-4-4v-8.5c0-2.2091 1.7909-4 4-4zm4 23c0 2.2091-1.7909 4-4 4s-4-1.7909-4-4 1.7909-4 4-4 4 1.7909 4 4z" fill="#1977cc" fill-rule="evenodd"/></svg>