<svg fill="none" height="512" viewBox="0 0 128 128" width="512" xmlns="http://www.w3.org/2000/svg"><g clip-rule="evenodd" fill-rule="evenodd"><path d="m90.0695 51.7975 8.9448-8.9449c3.8277.0928 7.6857-1.3214 10.6067-4.2426 5.663-5.6626 5.663-14.8435 0-20.5061s-14.8435-5.6626-20.5061 0c-2.9213 2.9212-4.3355 6.7788-4.2427 10.6066l-8.9449 8.9449c-3.8827-2.5724-9.1655-2.1481-12.5864 1.2728l-25.4559 25.4559c-3.4209 3.4209-3.8451 8.7036-1.2728 12.5864l-13.127 13.127c-2.2375.4503-4.3714 1.5429-6.1062 3.2778-4.6863 4.6863-4.6863 12.2847 0 16.9707s12.2842 4.686 16.9705 0c1.7349-1.735 2.8275-3.869 3.2779-6.106l13.1269-13.1274c2.7912 1.8493 6.3059 2.1499 9.3323.902 3.8611 8.8214 12.6675 14.9854 22.9134 14.9854 13.8071 0 25-11.1929 25-25 0-10.7661-6.805-19.9428-16.3491-23.4628.2844-2.3192-.2427-4.7191-1.5814-6.7397zm4.7022-28.0368c-2.5384 2.5384-2.5384 6.654 0 9.1924s6.6543 2.5384 9.1923 0c2.539-2.5384 2.539-6.654 0-9.1924-2.538-2.5384-6.6539-2.5384-9.1923 0zm-6.9743 13.3383c.3985.5261.8376 1.0312 1.3175 1.511.4798.4798.9848.919 1.5109 1.3175l-6.0718 6.0717-2.8284-2.8284zm-4.0947 19.9107c-.0621-.4066-.2497-.7978-.5628-1.1109l-11.3137-11.3137c-.7811-.7811-2.0474-.7811-2.8285 0l-1.4141 1.4141 11.3326 11.3327c1.5804-.2597 3.1856-.3664 4.7865-.3222zm-13.1296 3.2927-8.6464-8.6463-2.8284 2.8284 8.123 8.123c1.0498-.8553 2.1705-1.627 3.3518-2.3051zm-8.6787 8.2919-8.453-8.4529-2.8284 2.8283 9.336 9.3361c.5459-1.2965 1.198-2.5373 1.9454-3.7115zm-3.8923 13.0782-13.0459-13.0459-1.4143 1.4143c-.7811.7811-.7811 2.0474 0 2.8284l11.3137 11.3137c1.0499 1.05 2.6444.317 3.2084-.3799-.0501-.7029-.0711-1.4171-.0619-2.1306zm-13.046 3.9247-2.8285-2.8284-9.3096 9.3096c.5371.3828 1.0497.8151 1.5315 1.2969.4819.4818.9142.9945 1.2969 1.5315zm-21.9203 19.0918c-1.5621-1.562-1.5621-4.095 0-5.6568 1.5621-1.5621 4.0948-1.5621 5.6569 0 1.5621 1.5618 1.5621 4.0948 0 5.6568s-4.0948 1.562-5.6569 0zm76.9642-22.689c0 9.3888-7.6112 17-17 17s-17-7.6112-17-17 7.6112-17 17-17 17 7.6112 17 17z" fill="#000"/><path d="m108 82c0 13.8071-11.1929 25-25 25s-25-11.1929-25-25 11.1929-25 25-25 25 11.1929 25 25zm-21.0503-12.435c-1.5621-1.5621-4.0947-1.5621-5.6568 0l-1.4142 1.4142c-2.8996 2.8996-3.6463 7.1368-2.2401 10.7253l-4.831 4.831c-1.5621 1.5621-1.5621 4.0948 0 5.6569s4.0947 1.5621 5.6568 0l4.8311-4.831c3.5885 1.4062 7.8257.6595 10.7253-2.2401l1.4142-1.4142c1.5621-1.5621 1.5621-4.0948 0-5.6569s-4.0948-1.5621-5.6569 0l-1.4142 1.4142c-.781.7811-2.0473.7811-2.8284 0-.781-.781-.781-2.0473 0-2.8284l1.4142-1.4142c1.5621-1.5621 1.5621-4.0947 0-5.6568z" fill="#1977cc"/></g></svg>