<svg fill="none" height="512" viewBox="0 0 128 128" width="512" xmlns="http://www.w3.org/2000/svg"><path d="m60 64c2.2091 0 4-1.7909 4-4s-1.7909-4-4-4-4 1.7909-4 4 1.7909 4 4 4z" fill="#1977cc"/><g clip-rule="evenodd" fill-rule="evenodd"><path d="m57.88 73.04v8.6715c0 6.7241-7.2897 12.6863-14.5365 8.7123-5.3721-2.9459-9.8736-7.2689-13.0353-12.4969-4.4009-7.277 1.6539-14.8869 8.5036-14.8869h9.0682c5.5228 0 10 4.4772 10 10zm-20.7263.747c-.7529-1.245.2031-2.747 1.6581-2.747h9.0682c1.1046 0 2 .8954 2 2v8.6715c0 1.4225-1.4427 2.3818-2.6899 1.6978-4.1322-2.266-7.61-5.6101-10.0364-9.6223z" fill="#000"/><path d="m60.0019 14c25.4042.001 45.9981 20.5955 45.9981 46 0 3.3486-.358 6.6135-1.037 9.7588 5.521 4.5858 9.037 11.5029 9.037 19.2412 0 13.807-11.193 25-25 25-7.7383 0-14.6554-3.516-19.2412-9.037-3.1453.679-6.4102 1.037-9.7588 1.037-25.4051 0-46-20.5949-46-46s20.5949-46 46-46zm5.5174 83.6021c-1.8019.2622-3.6447.3979-5.5193.3979-20.9868 0-38-17.0132-38-38 0-14.0986 7.6779-26.4039 19.0806-32.9627l1.6533 2.8805c-6.3462 3.651-11.4249 9.2509-14.4216 15.9736-3.1828 7.1403 2.6006 13.8286 9.0735 13.8286h1.5403c2.9519 0 5.816-1.0047 8.121-2.8487l5.0913-4.073c.3546-.2837.7953-.4383 1.2494-.4383h13.2244c.4541 0 .8948.1546 1.2494.4383l5.0913 4.073c2.305 1.844 5.1691 2.8487 8.121 2.8487h1.5403c6.473 0 12.2563-6.6883 9.0735-13.8286-3.0151-6.7641-8.138-12.3915-14.5389-16.0408l1.6421-2.887c11.4734 6.5401 19.2091 18.8849 19.2091 33.0364 0 1.8746-.1357 3.7174-.3979 5.5193-2.6821-.9829-5.5794-1.5193-8.6021-1.5193-1.0925 0-2.1686.0701-3.2242.206-1.4004-.7426-2.9719-1.166-4.5876-1.166h-9.0682c-5.5229 0-10 4.4772-10 10v8.6715c0 2.1076.7162 4.1403 1.9227 5.8156-.1984 3.4139.2995 6.863 1.4766 10.075zm-5.5869-72.2981c-3.3324.0065-6.6319.4929-9.8002 1.4328l-1.6862-2.9377c3.6968-1.1799 7.5678-1.7914 11.4799-1.799 3.9122-.0076 7.7855.5888 11.4869 1.7542l-1.6747 2.9443c-3.1719-.9275-6.4734-1.401-9.8057-1.3946zm-12.7915 21.2473c1.7731-1.4185 3.9762-2.1913 6.2469-2.1913h13.2244c2.2707 0 4.4738.7728 6.2469 2.1913l5.0913 4.073c.8866.7093 1.9882 1.0957 3.1235 1.0957h1.5403c1.3597 0 2.3201-1.3296 1.7666-2.5715-4.2142-9.4539-13.911-15.8285-24.3808-15.8285-10.4699 0-20.1666 6.3746-24.3808 15.8285-.5535 1.2419.4069 2.5715 1.7666 2.5715h1.5403c1.1354 0 2.2369-.3864 3.1235-1.0957zm58.8591 42.4487c0 9.3888-7.6112 17-17 17s-17-7.6112-17-17 7.6112-17 17-17 17 7.6112 17 17z" fill="#000"/><path d="m89 114c13.807 0 25-11.193 25-25 0-13.8071-11.193-25-25-25-13.8071 0-25 11.1929-25 25 0 13.807 11.1929 25 25 25zm3.9497-37.435c-1.5621-1.5621-4.0947-1.5621-5.6568 0l-1.4142 1.4142c-2.8996 2.8996-3.6463 7.1368-2.2401 10.7253l-4.831 4.831c-1.5621 1.5621-1.5621 4.0947 0 5.6568 1.5621 1.5617 4.0947 1.5617 5.6568 0l4.831-4.8309c3.5885 1.4062 7.8258.6596 10.7256-2.24l1.414-1.4143c1.562-1.5621 1.562-4.0947 0-5.6568-1.5621-1.5621-4.0948-1.5621-5.6569 0l-1.4142 1.4142c-.7787.7788-2.04.781-2.8215.0068l-.0069-.0069-.0068-.0068c-.7742-.7816-.772-2.0428.0068-2.8215l1.4142-1.4142c1.5621-1.5621 1.5621-4.0948 0-5.6569z" fill="#1977cc"/></g></svg>