<svg fill="none" height="512" viewBox="0 0 128 128" width="512" xmlns="http://www.w3.org/2000/svg"><path clip-rule="evenodd" d="m61 78v9.8588c0 6.7607-7.2831 12.6212-14.4795 8.7585-5.9615-3.2-10.9384-7.9818-14.376-13.7873-4.2795-7.2276 1.6641-14.83 8.5546-14.83h10.3009c5.5228 0 10 4.4771 10 10zm-21.9716.754c-.7414-1.252.2157-2.754 1.6707-2.754h10.3009c1.1046 0 2 .8954 2 2v9.8588c0 1.4225-1.4426 2.3825-2.6959 1.7098-4.6542-2.4983-8.5845-6.2694-11.2757-10.8146z" fill="#000" fill-rule="evenodd"/><path clip-rule="evenodd" d="m77 68h10.3009c6.8905 0 12.8341 7.6024 8.5546 14.8299-3.4375 5.8056-8.4145 10.5874-14.376 13.7874-7.1964 3.8627-14.4795-1.9978-14.4795-8.7585v-9.8588c0-5.5229 4.4772-10 10-10zm-2 10c0-1.1046.8954-2 2-2h10.3009c1.455 0 2.4121 1.502 1.6707 2.754-2.6912 4.5452-6.6215 8.3163-11.2757 10.8146-1.2533.6727-2.6959-.2873-2.6959-1.7098z" fill="#000" fill-rule="evenodd"/><path d="m69 64c0 2.7614-2.2386 5-5 5s-5-2.2386-5-5 2.2386-5 5-5 5 2.2386 5 5z" fill="#1977cc"/><path clip-rule="evenodd" d="m64 14c-27.6142 0-50 22.3858-50 50s22.3858 50 50 50 50-22.3858 50-50-22.3858-50-50-50zm-20.9109 13.5675c-12.603 7.2492-21.0891 20.8498-21.0891 36.4325 0 23.196 18.804 42 42 42s42-18.804 42-42c0-15.6411-8.5499-29.2853-21.2311-36.5139l-2.4728 4.3475c6.9168 3.9435 12.4352 10.0522 15.6351 17.3943 3.0888 7.0878-2.6072 13.7721-9.1109 13.7721h-2.0664c-2.9519 0-5.816-1.0047-8.121-2.8487l-5.8913-4.713c-.3546-.2837-.7953-.4383-1.2494-.4383h-14.9844c-.4541 0-.8948.1546-1.2494.4383l-5.8913 4.713c-2.305 1.844-5.1691 2.8487-8.121 2.8487h-2.0664c-6.5037 0-12.2-6.6843-9.1109-13.7721 3.1806-7.2978 8.6517-13.377 15.51-17.3227zm20.8388-.5848c-3.7399.0072-7.4411.5811-10.9812 1.6886l-2.533-4.4131c4.3307-1.4805 8.8917-2.2491 13.5045-2.2581s9.1767.7418 13.5131 2.2054l-2.5158 4.423c-3.5444-1.0937-7.2478-1.6531-10.9876-1.6458zm-26.5254 25.4415c-.5432 1.2464.4175 2.5758 1.7772 2.5758h2.0664c1.1353 0 2.2369-.3864 3.1235-1.0957l5.8913-4.713c1.7731-1.4185 3.9762-2.1913 6.2469-2.1913h14.9844c2.2707 0 4.4738.7728 6.2469 2.1913l5.8913 4.713c.8866.7093 1.9882 1.0957 3.1235 1.0957h2.0664c1.3597 0 2.3204-1.3294 1.7772-2.5758-4.5202-10.3715-15.1329-17.4242-26.5975-17.4242-11.4762 0-22.0777 7.0537-26.5975 17.4242z" fill="#000" fill-rule="evenodd"/></svg>