<svg fill="none" height="512" viewBox="0 0 128 128" width="512" xmlns="http://www.w3.org/2000/svg"><path clip-rule="evenodd" d="m70 22v4h-16v-4zm3-8c2.7614 0 5 2.2386 5 5v10c0 2.4203-1.7197 4.4389-4.0038 4.9007.0025.0884.0038.177.0038.266 0 1.0125.8208 1.8333 1.8333 1.8333h9.1667c5.5228 0 10 4.4772 10 10v11 47c0 5.523-4.4772 10-10 10h-46c-5.5228 0-10-4.477-10-10v-47-11c0-5.5228 4.4772-10 10-10h9.1667c1.0125 0 1.8333-.8208 1.8333-1.8333 0-.089.0013-.1776.0038-.266-2.2841-.4618-4.0038-2.4804-4.0038-4.9007v-10c0-2.7614 2.2386-5 5-5zm-14.9882 20c-.0078.0544-.0118.1101-.0118.1667 0 5.4308-4.4025 9.8333-9.8333 9.8333h-9.1667c-1.1046 0-2 .8954-2 2v11h50v-11c0-1.1046-.8954-2-2-2h-9.1667c-5.4308 0-9.8333-4.4025-9.8333-9.8333 0-.0566-.004-.1123-.0118-.1667zm-21.0118 70v-39h50v39c0 1.105-.8954 2-2 2h-46c-1.1046 0-2-.895-2-2z" fill="#000" fill-rule="evenodd"/><path d="m39 114c-5.5228 0-10-4.477-10-10v-47h66v47c0 5.523-4.4772 10-10 10z" fill="#1977cc"/></svg>