<svg fill="none" height="512" viewBox="0 0 128 128" width="512" xmlns="http://www.w3.org/2000/svg"><g clip-rule="evenodd" fill-rule="evenodd"><path d="m101 24v18.0629c7.747 4.247 13 12.4787 13 21.9371 0 12.4456-9.094 22.7672-21 24.6817v15.3183c0 5.523-4.4772 10-10 10h-32c-5.5228 0-10-4.477-10-10v-26h-17c-5.5228 0-10-4.4772-10-10v-7c0-5.5229 4.4772-10 10-10h9v-27c0-5.5228 4.4772-10 10-10h48c5.5229 0 10 4.4772 10 10zm-8 0v15.3183c-1.3024-.2095-2.6385-.3183-4-.3183-13.1339 0-23.9023 10.128-24.9212 23h-21.0788c-1.1046 0-2-.8954-2-2v-36c0-1.1046.8954-2 2-2h48c1.1046 0 2 .8954 2 2zm-22 66.7477v-9.3983c3.6714 3.8082 8.5401 6.4543 14 7.3323v5.4718zm-22-20.7477h14v1.9294l-14 3.2639zm-16-10c0 4.8379 3.4355 8.8734 8 9.8v.2h-17c-1.1046 0-2-.8954-2-2v-7c0-1.1046.8954-2 2-2h9zm30 30.9294-14 3.2639v-10.7854l14-3.2639zm0 8.2146v6.856h-12c-1.1046 0-2-.895-2-2v-1.592zm8 6.856v-7.019l14 3.406v1.613c0 1.105-.8954 2-2 2zm18-25c9.3888 0 17-7.6112 17-17s-7.6112-17-17-17-17 7.6112-17 17 7.6112 17 17 17z" fill="#000"/><path d="m89 89c13.807 0 25-11.1929 25-25s-11.193-25-25-25c-13.8071 0-25 11.1929-25 25s11.1929 25 25 25zm9.8284-26.6716c1.5626-1.5621 1.5626-4.0947 0-5.6568-1.5621-1.5621-4.0947-1.5621-5.6568 0l-7.6716 7.6715-1.6716-1.6715c-1.5621-1.5621-4.0947-1.5621-5.6568 0s-1.5621 4.0947 0 5.6568l3.7929 3.7929c1.9526 1.9526 5.1184 1.9526 7.071 0z" fill="#1977cc"/></g></svg>