<svg fill="none" height="512" viewBox="0 0 128 128" width="512" xmlns="http://www.w3.org/2000/svg"><g clip-rule="evenodd" fill-rule="evenodd"><path d="m101 24v33.5167l7.249 13.4833c3.464 6 3.134 10.5-3.795 10.5h-11.454v22.5c0 5.523-4.4772 10-10 10h-32c-5.5228 0-10-4.477-10-10v-26h-17c-5.5228 0-10-4.4772-10-10v-7c0-5.5229 4.4772-10 10-10h9v-27c0-5.5228 4.4772-10 10-10h48c5.5229 0 10 4.4772 10 10zm-8 0v20.5c-1.0146-.6764-1.8984-1.4305-2.6954-2.1106-2.4223-2.0668-4.0432-3.4499-6.0988.1106l-11.2584 19.5h-29.9474c-1.1046 0-2-.8954-2-2v-36c0-1.1046.8954-2 2-2h48c1.1046 0 2 .8954 2 2zm-22 66.7477v-9.2633s9.3557.0156 14 .0156v12.6535zm-22-20.7477h14v1.9294l-14 3.2639zm-16-10c0 4.8379 3.4355 8.8734 8 9.8v.2h-17c-1.1046 0-2-.8954-2-2v-7c0-1.1046.8954-2 2-2h9zm30 30.9294-14 3.2639v-10.7854l14-3.2639zm0 8.2146v6.856h-12c-1.1046 0-2-.895-2-2v-1.592zm8 6.856v-7.019l14 3.406v1.613c0 1.105-.8954 2-2 2zm23-58h-11v32h11z" fill="#000"/><path d="m92.3301 40.5c-1.9245-3.3333-6.7357-3.3333-8.6602 0l-19.9186 34.5c-1.9245 3.3333.4811 7.5 4.3301 7.5h39.8376c3.849 0 6.254-4.1667 4.33-7.5zm-4.3301 9.5c2.2091 0 4 1.7909 4 4v8.5c0 2.2091-1.7909 4-4 4s-4-1.7909-4-4v-8.5c0-2.2091 1.7909-4 4-4zm4 23c0 2.2091-1.7909 4-4 4s-4-1.7909-4-4 1.7909-4 4-4 4 1.7909 4 4z" fill="#1977cc"/></g></svg>