<svg fill="none" height="512" viewBox="0 0 128 128" width="512" xmlns="http://www.w3.org/2000/svg"><g clip-rule="evenodd" fill-rule="evenodd"><path d="m24 26h80c5.523 0 10 4.4771 10 10v56c0 5.5229-4.477 10-10 10h-80c-5.5229 0-10-4.4771-10-10v-56c0-5.5229 4.4772-10 10-10zm82 13v-3c0-1.1046-.895-2-2-2h-16.6734c1.9199 1.4949 3.6924 3.17 5.2923 5zm-70.6189 0c1.5999-1.83 3.3724-3.5051 5.2923-5h-16.6734c-1.1046 0-2 .8954-2 2v3zm68.6189 55h-16.6734c1.9199-1.4949 3.6924-3.17 5.2923-5h13.3811v3c0 1.1046-.895 2-2 2zm2-13h-8.0054c.8042-1.6051 1.4981-3.2751 2.0714-5h5.934zm0-13h-4.208c.138-1.3145.208-2.649.208-4s-.07-2.6855-.208-4h4.208zm0-16h-5.934c-.5733-1.7249-1.2672-3.3949-2.0714-5h8.0054zm-82 42h16.6734c-1.9199-1.4949-3.6924-3.17-5.2923-5h-13.3811v3c0 1.1046.8954 2 2 2zm3.9336-18c.5737 1.7249 1.2676 3.3949 2.0718 5h-8.0054v-5zm-1.9336-12c0 1.351.0705 2.6855.208 4h-4.208v-8h4.208c-.1375 1.3145-.208 2.649-.208 4zm4.0054-17c-.8042 1.6051-1.4981 3.2751-2.0718 5h-5.9336v-5zm33.9946 47c16.5685 0 30-13.4315 30-30s-13.4315-30-30-30-30 13.4315-30 30 13.4315 30 30 30z" fill="#000"/><path d="m71.8503 41.1454c.082-2.8172-2.1795-5.1454-4.9979-5.1454h-5.7048c-2.8184 0-5.0799 2.3282-4.9979 5.1454l.2683 9.2221-7.8525-4.8434c-2.3988-1.4796-5.5458-.6852-6.955 1.7556l-2.8524 4.9405c-1.4092 2.4408-.5237 5.5634 1.9571 6.901l8.1207 4.3788-8.1207 4.3787c-2.4808 1.3376-3.3663 4.4602-1.9571 6.901l2.8524 4.9405c1.4092 2.4408 4.5562 3.2352 6.955 1.7556l7.8525-4.8434-.2683 9.2222c-.082 2.8172 2.1795 5.1454 4.9979 5.1454h5.7048c2.8184 0 5.0799-2.3282 4.9979-5.1454l-.2683-9.2222 7.8525 4.8434c2.3988 1.4796 5.5458.6852 6.955-1.7556l2.8524-4.9405c1.4092-2.4408.5237-5.5634-1.9571-6.901l-8.1207-4.3787 8.1207-4.3788c2.4807-1.3376 3.3663-4.4602 1.9571-6.901l-2.8524-4.9405c-1.4092-2.4408-4.5562-3.2352-6.955-1.7556l-7.8525 4.8434zm-7.8503 33.8546c6.0751 0 11-4.9249 11-11s-4.9249-11-11-11-11 4.9249-11 11 4.9249 11 11 11z" fill="#1977cc"/><path d="m64 69c2.7614 0 5-2.2386 5-5s-2.2386-5-5-5-5 2.2386-5 5 2.2386 5 5 5zm0 8c7.1797 0 13-5.8203 13-13s-5.8203-13-13-13-13 5.8203-13 13 5.8203 13 13 13z" fill="#000"/></g></svg>