<svg fill="none" height="512" viewBox="0 0 128 128" width="512" xmlns="http://www.w3.org/2000/svg"><g clip-rule="evenodd" fill-rule="evenodd"><path d="m104 68.9982v-40.9982c0-5.5229-4.4771-10-10-10h-70c-5.5229 0-10 4.4771-10 10v60c0 5.5229 4.4771 10 10 10h41.669c3.6131 9.36 12.6966 16 23.331 16 13.807 0 25-11.193 25-25 0-8.1791-3.928-15.4408-10-20.0018zm-8-40.9982v14.7737c-2.7594-6.6981-7.2847-12.4826-12.9961-16.7737h10.9961c1.1046 0 2 .8954 2 2zm-5.5692 36.0403c.3736-1.9561.5692-3.9754.5692-6.0403 0-17.6731-14.3269-32-32-32s-32 14.3269-32 32 14.3269 32 32 32c1.7035 0 3.3759-.1331 5.0073-.3895-.0291-1.2124.0296-2.4292.1709-3.6105h-10.9815c-2.837 0-5.1057-2.3579-4.9963-5.1928l.2132-5.5233-4.8263 3.0255c-2.4001 1.5045-5.5695.7167-6.9859-1.7364l-5.3411-9.2512c-1.4164-2.4532-.5139-5.5919 1.9891-6.9182l5.5296-2.9299-5.5296-2.93c-2.503-1.3262-3.4055-4.4649-1.9891-6.9181l5.3412-9.2512c1.4163-2.4532 4.5857-3.241 6.9858-1.7364l4.8242 3.0242-.2111-5.4694c-.1094-2.8349 2.1593-5.1928 4.9963-5.1928h11.6066c2.8371 0 5.1057 2.3579 4.9963 5.1928l-.2111 5.4694 4.8242-3.0242c2.4001-1.5046 5.5695-.7168 6.9859 1.7364l5.3412 9.2512c1.4163 2.4532.5138 5.5919-1.9892 6.9181l-5.5296 2.93 5.5296 2.9299c1.4519.7694 2.3653 2.1485 2.5999 3.65 1.0177-.0663 2.0602-.0709 3.0803-.0133zm-12.4988 2.537.324-.5613-7.1436-3.7851c-.4702 1.2029-1.1145 2.3187-1.9018 3.3163l.0023.0606 5.072 3.1795c1.1458-.8356 2.3654-1.5761 3.6471-2.21zm-53.932-40.5773h10.9961c-5.7114 4.2911-10.2367 10.0756-12.9961 16.7737v-14.7737c0-1.1046.8954-2 2-2zm-2 62v-14.7737c2.7594 6.6981 7.2847 12.4826 12.9961 16.7737h-10.9961c-1.1046 0-2-.8954-2-2zm37-43.5c-.8155 0-1.6135.0751-2.3873.2187l-.298-7.7187h5.3706l-.2979 7.7187c-.7739-.1436-1.5719-.2187-2.3874-.2187zm-10.215 4.8382.0044.1146c-.7778.9855-1.416 2.0864-1.8846 3.2728l-7.1608-3.7943 2.2301-3.8626zm-9.041 16.6778 7.1436-3.7851c.4702 1.2029 1.1145 2.3187 1.9018 3.3163l-.0023.0606-6.813 4.2709zm16.5707 11.984.298-7.7187c.7738.1436 1.5718.2187 2.3873.2187s1.6135-.0751 2.3874-.2187l.2979 7.7187zm21.9413-29.0687-7.1607 3.7943c-.4687-1.1864-1.1069-2.2873-1.8847-3.2728l.0044-.1146 6.8109-4.2695zm-19.256 13.5687c2.7614 0 5-2.2386 5-5s-2.2386-5-5-5-5 2.2386-5 5 2.2386 5 5 5zm47 26.5c0 9.3888-7.6112 17-17 17s-17-7.6112-17-17 7.6112-17 17-17 17 7.6112 17 17z" fill="#000"/><path d="m89 114c13.807 0 25-11.193 25-25 0-13.8071-11.193-25-25-25-13.8071 0-25 11.1929-25 25 0 13.807 11.1929 25 25 25zm3.9497-37.4351c-1.5621-1.5621-4.0948-1.5621-5.6568 0l-1.4143 1.4143c-2.8996 2.8995-3.6462 7.1368-2.24 10.7253l-4.831 4.831c-1.5621 1.5621-1.5621 4.0947 0 5.6568 1.5621 1.5617 4.0947 1.5617 5.6568 0l4.831-4.831c3.5885 1.4063 7.8258.6596 10.7256-2.24l1.414-1.4142c1.562-1.5621 1.562-4.0948 0-5.6569-1.5621-1.5621-4.0948-1.5621-5.6569 0l-1.4142 1.4142c-.7796.7797-2.0428.7811-2.8242.0042l-.0084-.0083c-.7769-.7814-.7755-2.0446.0042-2.8243l1.4142-1.4142c1.5621-1.5621 1.5621-4.0948 0-5.6569z" fill="#1977cc"/></g></svg>