<svg fill="none" height="512" viewBox="0 0 128 128" width="512" xmlns="http://www.w3.org/2000/svg"><g clip-rule="evenodd" fill-rule="evenodd"><path d="m63.8785 49.5195c-1.2453-12.6426-11.9085-22.5195-24.8785-22.5195-13.8071 0-25 11.1929-25 25 0 7.5572 3.3532 14.3312 8.6529 18.9154l-7.3661 13.2162c-3.715 6.6656 1.104 14.8684 8.7349 14.8684h46.2529c18.7637 0 35.0054-13.0425 39.0564-31.3636l4.103-18.5546c.756-3.4188-2.145-6.5359-5.61-6.0263zm-7.8785 2.4805c0 9.3888-7.6112 17-17 17s-17-7.6112-17-17 7.6112-17 17-17 17 7.6112 17 17zm-15.9663 24.979c.5025 7.2752 6.5634 13.021 13.9663 13.021 7.732 0 14-6.268 14-14 0-5.18-2.8133-9.7029-6.9953-12.1243-4.0729 7.5309-11.8989 12.7344-20.971 13.1033zm-10.565-1.8601-7.1939 12.9074c-.743 1.3332.2208 2.9737 1.7469 2.9737h13.8847c-3.6629-3.9282-5.9047-9.1989-5.9064-14.9932-.864-.2515-1.7087-.5484-2.5313-.8879zm49.3815-19.7155-13.1864 1.9396c3.641 2.2811 6.5666 5.5984 8.3635 9.5387-.2695-4.3356 1.5333-8.6353 4.8229-11.4783zm14.8667-2.1868c4.3698 1.9573 7.5531 6.0893 8.1731 11.0192l2.793-12.6322zm3.1074 23.6528c-2.4081 1.9574-5.4792 3.1306-8.8243 3.1306-5.2547 0-9.8332-2.8949-12.2277-7.177.15 1.0374.2277 2.0981.2277 3.177 0 5.797-2.2421 11.0702-5.9064 15h.181c10.9016 0 20.7391-5.5032 26.5497-14.1306zm-2.8243-10.8694c0 3.3137-2.6863 6-6 6s-6-2.6863-6-6 2.6863-6 6-6 6 2.6863 6 6z" fill="#000"/><path d="m39 77c13.8071 0 25-11.1929 25-25s-11.1929-25-25-25-25 11.1929-25 25 11.1929 25 25 25zm0-40c2.2091 0 4 1.7909 4 4v10.5c0 2.2091-1.7909 4-4 4s-4-1.7909-4-4v-10.5c0-2.2091 1.7909-4 4-4zm4 26c0 2.2091-1.7909 4-4 4s-4-1.7909-4-4 1.7909-4 4-4 4 1.7909 4 4z" fill="#1977cc"/></g></svg>