<svg fill="none" height="512" viewBox="0 0 128 128" width="512" xmlns="http://www.w3.org/2000/svg"><g fill="#000"><path d="m42 73c0-2.2091 1.7909-4 4-4h16c2.2091 0 4 1.7909 4 4s-1.7909 4-4 4h-16c-2.2091 0-4-1.7909-4-4z"/><path d="m46 81c-2.2091 0-4 1.7909-4 4s1.7909 4 4 4h16c2.2091 0 4-1.7909 4-4s-1.7909-4-4-4z"/><path d="m70 85c0-2.2091 1.7909-4 4-4h7c2.2091 0 4 1.7909 4 4s-1.7909 4-4 4h-7c-2.2091 0-4-1.7909-4-4z"/><path d="m46 93c-2.2091 0-4 1.7909-4 4s1.7909 4 4 4h16c2.2091 0 4-1.7909 4-4s-1.7909-4-4-4z"/><path d="m70 97c0-2.2091 1.7909-4 4-4h7c2.2091 0 4 1.7909 4 4s-1.7909 4-4 4h-7c-2.2091 0-4-1.7909-4-4z"/></g><path d="m85.9181 70.7358c1.511-1.6117 1.4293-4.143-.1823-5.6539-1.6117-1.511-4.143-1.4293-5.654.1823l-3.6443 3.8874-.5194-.554c-1.5109-1.6117-4.0422-1.6933-5.6539-.1824-1.6116 1.5109-1.6933 4.0423-.1824 5.6539l1.9785 2.1103c2.3704 2.5285 6.384 2.5285 8.7544 0z" fill="#1977cc"/><path clip-rule="evenodd" d="m88.6854 35.0231c-1.9049-11.917-12.2317-21.0231-24.6854-21.0231s-22.7805 9.1061-24.6854 21.0231c-5.2032.3522-9.3146 4.6844-9.3146 9.9769v59c0 5.523 4.4772 10 10 10h48c5.5228 0 10-4.477 10-10v-59c0-5.2925-4.1114-9.6247-9.3146-9.9769zm-7.6854 3.9769c0 9.3888-7.6112 17-17 17s-17-7.6112-17-17 7.6112-17 17-17 17 7.6112 17 17zm7.6633 4.1126c-1.9613 11.8504-12.257 20.8874-24.6633 20.8874s-22.702-9.037-24.6633-20.8874c-.7786.2737-1.3367 1.0153-1.3367 1.8874v59c0 1.105.8954 2 2 2h48c1.1046 0 2-.895 2-2v-59c0-.8721-.5581-1.6137-1.3367-1.8874z" fill="#000" fill-rule="evenodd"/><path clip-rule="evenodd" d="m64 64c13.8071 0 25-11.1929 25-25s-11.1929-25-25-25-25 11.1929-25 25 11.1929 25 25 25zm3.9497-37.4351c-1.5621-1.5621-4.0948-1.5621-5.6568 0l-1.4143 1.4143c-2.8996 2.8995-3.6462 7.1368-2.24 10.7253l-4.831 4.831c-1.5621 1.5621-1.5621 4.0947 0 5.6568s4.0947 1.5621 5.6568 0l4.831-4.831c3.5885 1.4063 7.8258.6596 10.7254-2.24l1.4142-1.4142c1.5621-1.5621 1.5621-4.0948 0-5.6569s-4.0948-1.5621-5.6569 0l-1.4142 1.4142c-.7796.7797-2.0428.7811-2.8242.0042l-.0084-.0083c-.7769-.7814-.7755-2.0446.0042-2.8243l1.4142-1.4142c1.5621-1.5621 1.5621-4.0948 0-5.6569z" fill="#1977cc" fill-rule="evenodd"/></svg>