<svg id="Layer_1" enable-background="new 0 0 33 33" height="33" viewBox="0 0 33 33" width="33" xmlns="http://www.w3.org/2000/svg"><g><g fill="#00a79d"><path d="m17.972 8.453h7.132v5.754h-7.132z" transform="matrix(-.707 -.707 .707 -.707 28.757 34.57)"/><path d="m30.621 3.85-.113-.115 1.574-1.574c.381-.381.381-.996 0-1.377-.379-.379-.996-.379-1.375.002l-1.576 1.574-.115-.113c-.947-.951-2.488-.951-3.438 0l-.572.572 5.043 5.043.572-.572c.951-.95.949-2.491 0-3.44z"/><path d="m22.815 5.76h7.132v1.453h-7.132z" transform="matrix(-.707 -.707 .707 -.707 40.448 29.728)"/><path d="m21.154 7.42h7.132v1.456h-7.132z" transform="matrix(-.707 -.707 .707 -.707 36.438 31.389)"/></g><g fill="#414042"><path d="m23.029 18.263-.928-.926-3.152 3.15-.582-.58 3.152-3.153-5.407-5.406-3.15 3.15-.584-.58 3.152-3.152-.926-.928c-.189-.189-.5-.188-.688.002l-2.484 2.482c-.189.189-.189.498 0 .688l.375.375-1.184 1.186c-.76.76-.76 1.99 0 2.749l4.922 4.924c.762.76 1.991.76 2.75 0l1.186-1.184.375.375c.189.189.498.189.688 0l2.482-2.484c.191-.19.191-.499.003-.688z"/><path d="m8.617 25.452.688-.688 2.332 2.33 2.32-2.32-2.33-2.332.686-.686 2.332 2.33.791-.791-5.866-5.86-2.293 2.293 2.277 2.277-.688.688-2.277-2.277-2.32 2.32 2.275 2.279-.688.688-2.264-2.264c-.752.887-.719 2.213.119 3.051l.158.162c-.311.654-.201 1.461.342 2.004.543.545 1.35.652 2.004.34l.162.16c.139.139.293.248.457.344l-.49.488c-1.092 1.092-1.941 1.092-3.033 0l-1.481-1.483-1.197 1.199 1.48 1.482c1.752 1.752 3.68 1.752 5.432 0l2.031-2.031 1.373-1.373z"/></g></g></svg>