<svg fill="none" height="512" viewBox="0 0 128 128" width="512" xmlns="http://www.w3.org/2000/svg"><g clip-rule="evenodd" fill-rule="evenodd"><path d="m73 14c2.7614 0 5 2.2386 5 5v8c0 1.6713-.7404 3.0921-2 4v1.5c0 1.0251.831 1.6364 1.8561 1.6364h26.1439c5.523 0 10 4.4771 10 10v57.8636c0 5.523-4.477 10-10 10h-70.0686c-2.0063 1.267-4.3832 2-6.9314 2-6.3537 0-13-12-13-12v-57.8636c0-5.5229 4.4771-10 10-10h25.1132c1.025 0 1.8868-.6113 1.8868-1.6364 0-.5395 0-1.5 0-1.5-1.0042-.9145-1.5308-2.1955-1.5308-3.6607v-8.3393c0-2.7614 2.2386-5 5-5zm-3 8v2h-12.5308v-2zm-11 10c0 5.4434-4.4435 10.1364-9.8868 10.1364h-25.1132c-1.1046 0-2 .8954-2 2v3.8636h84v-3.8636c0-1.1046-.895-2-2-2h-26.1439c-5.4434 0-9.8561-4.6931-9.8561-10.1364zm-19.3479 72h64.3479c1.105 0 2-.895 2-2v-4h-66.3479c.2275.963.3479 1.9675.3479 3 0 1.033-.1204 2.037-.3479 3zm-5.7207-14h72.0686v-6h-84v4.9963c1.5392-.6418 3.2282-.9963 5-.9963 2.5482 0 4.9251.7331 6.9314 2zm72.0686-28v-6h-84v6zm-84 8v6h84v-6zm10 31c0 2.761-2.2386 5-5 5s-5-2.239-5-5c0-2.7614 2.2386-5 5-5s5 2.2386 5 5z" fill="#000"/><path d="m27 96c-2.7614 0-5 2.2386-5 5 0 2.761 2.2386 5 5 5s5-2.239 5-5c0-2.7614-2.2386-5-5-5zm-13 5c0-7.1797 5.8203-13 13-13s13 5.8203 13 13c0 7.18-5.8203 13-13 13s-13-5.82-13-13z" fill="#1977cc"/></g></svg>