<svg fill="none" height="512" viewBox="0 0 128 128" width="512" xmlns="http://www.w3.org/2000/svg"><g clip-rule="evenodd" fill-rule="evenodd"><path d="m75 19c0-2.7614-2.2386-5-5-5h-16c-2.7614 0-5 2.2386-5 5v8c0 1.1477.3867 2.2051 1.0369 3.049-.0244.2681-.0369.5397-.0369.8142 0 .979-.7936 1.7727-1.7726 1.7727h-24.2274c-5.5228 0-10 4.4771-10 10v54.3641c0 7.253 11.9629 14.874 17.986 10h39.6646c4.4958 4.334 10.6113 7 17.3494 7 13.807 0 25-11.193 25-25 0-5.0026-1.469-9.662-4-13.5701v-32.7941c0-5.5228-4.477-9.9999-10-9.9999h-24.7074c-.979 0-1.7726-.7937-1.7726-1.7727 0-.1028-.0018-.2051-.0052-.307.917-.9064 1.4852-2.165 1.4852-3.5562zm-8 5v-2h-10v2zm8.4299 44h-53.4299v4h48.6695c1.4119-1.5216 3.0108-2.8671 4.7604-4zm-9.7609 12h-43.669v4h42.5001c.2797-1.3779.6727-2.7146 1.1689-4zm-1.4908 12h-26.9464c.4975 1.4075.7682 2.9221.7682 4.5 0 .8542-.0793 1.6898-.231 2.5h28.3112c-.9559-2.1879-1.6077-4.539-1.902-7zm-15.9508-51.3641c5.0127 0 9.144-3.7742 9.7072-8.6359h7.6508c.5632 4.8617 4.6945 8.6359 9.7072 8.6359h24.7074c1.105 0 2 .8954 2 1.9999v5.3642h-80v-5.3641c0-1.1046.8954-2 2-2zm53.7726 19.3641v-4h-80v4zm-74.5 42c3.0376 0 5.5-2.4624 5.5-5.5s-2.4624-6.5-5.5-6.5-6.5 3.4624-6.5 6.5 3.4624 5.5 6.5 5.5zm78.5-13c0 9.3888-7.6112 17-17 17s-17-7.6112-17-17 7.6112-17 17-17 17 7.6112 17 17z" fill="#000"/><g fill="#1977cc"><path d="m89 114c13.807 0 25-11.193 25-25 0-13.8071-11.193-25-25-25-13.8071 0-25 11.1929-25 25 0 13.807 11.1929 25 25 25zm3.9497-37.4351c-1.5621-1.5621-4.0947-1.5621-5.6568 0l-1.4142 1.4143c-2.8996 2.8995-3.6463 7.1368-2.2401 10.7253l-4.831 4.831c-1.5621 1.5621-1.5621 4.0947 0 5.6568 1.5621 1.5617 4.0947 1.5617 5.6568 0l4.831-4.831c3.5885 1.4063 7.8258.6596 10.7256-2.24l1.414-1.4142c1.562-1.5621 1.562-4.0948 0-5.6569-1.5621-1.5621-4.0948-1.5621-5.6569 0l-1.4142 1.4142c-.781.7811-2.0473.7811-2.8284 0-.781-.781-.781-2.0473 0-2.8284l1.4142-1.4142c1.5621-1.5621 1.5621-4.0948 0-5.6569z"/><path d="m27 91c-2.7614 0-5 2.2386-5 5s2.2386 5 5 5 5-2.2386 5-5-2.2386-5-5-5zm-13 5c0-7.1797 5.8203-13 13-13s13 5.8203 13 13c0 7.18-5.8203 13-13 13s-13-5.82-13-13z"/></g></g></svg>