<svg fill="none" height="512" viewBox="0 0 128 128" width="512" xmlns="http://www.w3.org/2000/svg"><g clip-rule="evenodd" fill-rule="evenodd"><path d="m84.0018 24c-4.561-6.0722-11.8227-10-20.0018-10s-15.4408 3.9278-20.0018 10h-24.9982c-2.7614 0-5 2.2386-5 5v32c0 2.419 1.7178 4.4367 4 4.9v28.2c-2.2822.4633-4 2.481-4 4.9v10c0 2.761 2.2386 5 5 5h90c2.761 0 5-2.239 5-5v-10c0-2.419-1.718-4.4367-4-4.9v-28.2c2.282-.4633 4-2.481 4-4.9v-32c0-2.7614-2.239-5-5-5zm-3.0018 15c0 9.3888-7.6112 17-17 17s-17-7.6112-17-17 7.6112-17 17-17 17 7.6112 17 17zm-.7512 19h25.7512v-26h-17.9932c.6465 2.2212.9932 4.5701.9932 7 0 7.6038-3.3947 14.4148-8.7512 19zm-40.2556-26h-17.9932v26h25.7512c-5.3565-4.5852-8.7512-11.3962-8.7512-19 0-2.4299.3467-4.7788.9932-7zm-13.9932 62v-28h76v28h-17v-4h9c2.7614 0 5-2.2386 5-5v-11c0-2.7614-2.2386-5-5-5h-60c-2.7614 0-5 2.2386-5 5v11c0 2.7614 2.2386 5 5 5h9v4zm-4 8v4h84v-4zm29-8h9v-17h-9zm17 0h9v-17h-9zm-31-17h6v5h-6zm48 0v5h6v-5z" fill="#000"/><path d="m64 64c13.8071 0 25-11.1929 25-25s-11.1929-25-25-25-25 11.1929-25 25 11.1929 25 25 25zm3.9498-37.435c-1.5621-1.5621-4.0948-1.5621-5.6569 0l-1.4142 1.4142c-2.8995 2.8996-3.6462 7.1367-2.2401 10.7252l-4.831 4.8311c-1.5621 1.5621-1.5621 4.0947 0 5.6568s4.0947 1.5621 5.6568 0l4.831-4.8309c3.5885 1.4062 7.8258.6596 10.7254-2.24l1.4143-1.4143c1.5621-1.5621 1.5621-4.0947 0-5.6568s-4.0948-1.5621-5.6569 0l-1.4142 1.4142c-.7811.781-2.0474.781-2.8284 0-.7811-.781-.7811-2.0474 0-2.8284l1.4142-1.4142c1.5621-1.5621 1.5621-4.0948 0-5.6569z" fill="#1977cc"/></g></svg>