<svg fill="none" height="512" viewBox="0 0 128 128" width="512" xmlns="http://www.w3.org/2000/svg"><path d="m22.1689 67c-.7643-3.2089-1.1689-6.5572-1.1689-10 0-23.7482 19.2518-43 43-43s43 19.2518 43 43c0 3.4428-.405 6.7911-1.169 10h-14.6013c1.1452-3.1172 1.7703-6.4856 1.7703-10 0-16.0163-12.9837-29-29-29s-29 12.9837-29 29c0 3.5144.6251 6.8828 1.7703 10z" fill="#1977cc"/><path clip-rule="evenodd" d="m18 104.021c0 5.511 4.4676 9.979 9.9787 9.979h72.0423c5.511 0 9.979-4.468 9.979-9.979 0-2.465-.974-4.4822-2.321-6.5017-1.095-1.6427-1.679-3.5728-1.679-5.547v-7.9445c0-1.9743.584-3.9044 1.679-5.547 1.352-2.0275 2.321-3.9801 2.321-6.5021 0-6.3581-4.5-9.9787-9.979-9.9787h-4.4093c.2556-1.6291.3883-3.2991.3883-5 0-17.6731-14.3269-32-32-32s-32 14.3269-32 32c0 1.7009.1327 3.3709.3883 5h-4.4096c-4.9787 0-9.9787 3.6206-9.9787 9.9787 0 2.522.9688 4.4746 2.3205 6.5021 1.0951 1.6426 1.6795 3.5727 1.6795 5.547v7.9445c0 1.9742-.5844 3.9043-1.6795 5.547-1.3464 2.0195-2.3205 4.0367-2.3205 6.5017zm50-47.021c0-2.2091-1.7909-4-4-4s-4 1.7909-4 4 1.7909 4 4 4 4-1.7909 4-4zm34 14.9787c0-1.0928-.886-1.9787-1.979-1.9787h-72.0423c-1.0928 0-1.9787.8859-1.9787 1.9787 0 .4146.0854 1.0213.6056 1.0213h74.7884c.521 0 .606-.6067.606-1.0213zm-4 12.0491c0-1.0193.0865-2.032.2565-3.0278h-68.513c.17.9958.2565 2.0085.2565 3.0278v7.9445c0 1.0192-.0865 2.0319-.2565 3.0277h68.513c-.17-.9958-.2565-2.0085-.2565-3.0277zm4 19.9932c0-.414-.085-1.021-.606-1.021h-74.7884c-.5202 0-.6056.607-.6056 1.021 0 1.093.8859 1.979 1.9787 1.979h72.0423c1.093 0 1.979-.886 1.979-1.979zm-14-47.021c0 1.7146-.1798 3.3872-.5216 5h-8.9162l-3.0108-1.7383c.3453-1.2252.4914-2.5046.4378-3.7762l11.0124-6.358c.6495 2.1772.9984 4.4841.9984 6.8725zm-4.548-14.0607-10.5042 6.0645c-1.3306-1.488-3.027-2.6421-4.9478-3.321v-12.351c6.3382 1.0634 11.834 4.611 15.452 9.6075zm-43.452 14.0607c0 1.7146.1798 3.3872.5216 5h8.9162l3.0108-1.7383c-.3453-1.2252-.4914-2.5046-.4378-3.7762l-11.0124-6.358c-.6495 2.1772-.9984 4.4841-.9984 6.8725zm4.548-14.0607 10.5042 6.0645c1.3306-1.488 3.027-2.6421 4.9478-3.321v-12.351c-6.3382 1.0634-11.834 4.611-15.452 9.6075z" fill="#000" fill-rule="evenodd"/></svg>