<svg id="Layer_1" enable-background="new 0 0 33 33" height="33" viewBox="0 0 33 33" width="33" xmlns="http://www.w3.org/2000/svg"><g><g><circle cx="16.5" cy="8.247" fill="#00a79d" r="3.142"/></g><g><path d="m16.5 20.877c-1.871 0-3.393-1.523-3.393-3.395 0-1.869 1.521-3.393 3.393-3.393s3.393 1.523 3.393 3.393c0 1.872-1.522 3.395-3.393 3.395zm0-6.033c-1.455 0-2.639 1.184-2.639 2.639s1.184 2.641 2.639 2.641 2.639-1.186 2.639-2.641-1.184-2.639-2.639-2.639z" fill="#00a79d"/></g><g><path d="m23.068 9.127 2.977-2.582v-1.522h-4.268v-2.011c0-.555-.451-1.004-1.006-1.004h-.607v-.504c0-.555-.449-1.004-1.006-1.004h-5.318c-.555 0-1.004.449-1.004 1.004v.504h-.608c-.555 0-1.005.449-1.005 1.004v2.012h-4.269v1.521l2.978 2.582h1.291v5.131h-4.269v1.523l2.978 2.582h1.291v5.131h-4.269v1.521l2.978 2.582h1.291v4.903h10.555v-4.902h1.291l2.977-2.582v-1.521h-4.268v-5.131h1.291l2.977-2.582v-1.523h-4.268v-5.132zm-6.568 21.738c-2.287 0-4.146-1.859-4.146-4.146s1.859-4.146 4.146-4.146c2.285 0 4.146 1.859 4.146 4.146s-1.861 4.146-4.146 4.146zm0-9.234c-2.287 0-4.146-1.861-4.146-4.148 0-2.285 1.859-4.146 4.146-4.146 2.285 0 4.146 1.861 4.146 4.146 0 2.287-1.861 4.148-4.146 4.148zm0-9.236c-2.287 0-4.146-1.859-4.146-4.146s1.859-4.146 4.146-4.146c2.285 0 4.146 1.859 4.146 4.146s-1.861 4.146-4.146 4.146z" fill="#414042"/></g><g><path d="m16.5 30.111c-1.871 0-3.393-1.521-3.393-3.393s1.521-3.393 3.393-3.393 3.393 1.521 3.393 3.393-1.522 3.393-3.393 3.393zm0-6.031c-1.455 0-2.639 1.184-2.639 2.639s1.184 2.639 2.639 2.639 2.639-1.184 2.639-2.639-1.184-2.639-2.639-2.639z" fill="#00a79d"/></g></g></svg>