<svg fill="none" height="512" viewBox="0 0 128 128" width="512" xmlns="http://www.w3.org/2000/svg"><path clip-rule="evenodd" d="m99.0143 42.8526-8.9448 8.9449c2.5724 3.8828 2.1482 9.1656-1.2728 12.5866l-25.4558 25.4558c-3.421 3.4209-8.7038 3.8452-12.5866 1.2727l-13.1269 13.1274c-.4504 2.237-1.543 4.371-3.2779 6.106-4.6863 4.686-12.2842 4.686-16.9705 0s-4.6863-12.2844 0-16.9707c1.7348-1.7349 3.8687-2.8275 6.1062-3.2778l13.127-13.127c-2.5723-3.8828-2.1481-9.1655 1.2728-12.5864l25.4559-25.4559c3.4209-3.4209 8.7037-3.8452 12.5864-1.2728l8.9449-8.9449c-.0928-3.8278 1.3214-7.6854 4.2427-10.6066 5.6626-5.6626 14.8431-5.6626 20.5061 0s5.663 14.8435 0 20.5061c-2.921 2.9212-6.779 4.3354-10.6067 4.2426zm-4.2426-9.8995c-2.5384-2.5384-2.5384-6.654 0-9.1924s6.6543-2.5384 9.1923 0c2.539 2.5384 2.539 6.654 0 9.1924-2.538 2.5384-6.6539 2.5384-9.1923 0zm-5.6568 5.6569c-.4799-.4798-.919-.9849-1.3175-1.511l-6.0718 6.0718 2.8284 2.8284 6.0718-6.0717c-.5261-.3985-1.0311-.8377-1.5109-1.3175zm-13.046 27.1882-2.8285 2.8284-14.1421-14.1421 2.8284-2.8284zm-11.3138 11.3137 2.8285-2.8285-14.1422-14.142-2.8284 2.8283zm-5.6568 5.6569-14.1421-14.1422-1.4143 1.4143c-.7811.7811-.7811 2.0474 0 2.8284l11.3137 11.3137c.7811.7811 2.0474.7811 2.8284 0zm22.6274-22.6274-14.1421-14.1422 1.4141-1.4141c.7811-.7811 2.0474-.7811 2.8285 0l11.3137 11.3137c.781.781.781 2.0474 0 2.8284zm-39.5981 22.6274 2.8285 2.8284-9.3097 9.3096c-.3827-.537-.815-1.0497-1.2969-1.5315-.4818-.4818-.9944-.9141-1.5315-1.2969zm-19.0918 16.2634c-1.5621 1.5618-1.5621 4.0948 0 5.6568s4.0948 1.562 5.6569 0 1.5621-4.095 0-5.6568c-1.5621-1.5621-4.0948-1.5621-5.6569 0z" fill="#000" fill-rule="evenodd"/><g fill="#1977cc"><path d="m42 30c0-2.2091 1.7909-4 4-4h7c2.7614 0 5 2.2386 5 5v7c0 2.2091-1.7909 4-4 4-1.7152 0-3.1783-1.0796-3.7468-2.5964l-15.4248 15.4248c-1.5621 1.5621-4.0947 1.5621-5.6568 0s-1.5621-4.0947 0-5.6568l15.4248-15.4248c-1.5168-.5685-2.5964-2.0316-2.5964-3.7468z"/><path d="m73 87c1.7152 0 3.1783 1.0796 3.7468 2.5964l15.4248-15.4248c1.5621-1.5621 4.0947-1.5621 5.6568 0s1.5621 4.0947 0 5.6568l-15.4248 15.4248c1.5168.5685 2.5964 2.0316 2.5964 3.7468 0 2.209-1.7909 4-4 4h-7c-2.7614 0-5-2.239-5-5v-7c0-2.2091 1.7909-4 4-4z"/></g></svg>