<svg fill="none" height="512" viewBox="0 0 128 128" width="512" xmlns="http://www.w3.org/2000/svg"><path clip-rule="evenodd" d="m45.5 18c0-2.2091 1.7908-4 4-4h6.5c4.9706 0 9 4.0294 9 9v7c0 .0169-.0001.0337-.0003.0506l.0002.0229.0001.0336v2.4367c3.3194-1.6291 7.0529-2.5438 11-2.5438 13.8071 0 25 11.1929 25 25s-11.1929 25-25 25c-2.0683 0-4.0779-.2512-6-.7246v4.7246c0 2.7614-2.2386 5-5 5v9c0 4.101-2.4682 7.625-6 9.168v2.832c0 2.209-1.7909 4-4 4-2.2092 0-4-1.791-4-4v-2.832c-3.5318-1.543-6-5.067-6-9.168v-9c-2.7614 0-5-2.2386-5-5 0-12.3108 0-24.6217 0-36.9302 0-.9802.2881-1.9387.8284-2.7565l3.3432-5.0596c.5403-.8177.8284-1.7762.8284-2.7564v-6.3902c0-2.7614 2.2386-5 5-5h7v-2.1071c0-.5523-.4477-1-1-1h-6.5c-2.2092 0-4-1.7909-4-4zm16.5 57.7153c-6.3797-4.3199-10.6576-11.5095-10.9804-19.7153h-3.0196v25h14zm-10.0068-27.7153c1.0282-3.5321 2.8147-6.7412 5.1716-9.4393-.1093-.6795-.1648-1.3694-.1648-2.0634v-3.3902h-4v3.3902c0 2.5484-.749 5.0405-2.1539 7.1667l-2.8461 4.3074v.0286zm5.0068 41h-4v9c0 1.1046.8954 2 2 2s2-.8954 2-2zm36-34c0 9.3888-7.6112 17-17 17-9.3889 0-17-7.6112-17-17s7.6111-17 17-17c9.3888 0 17 7.6112 17 17z" fill="#000" fill-rule="evenodd"/><g fill="#1977cc"><path d="m88.0164 15.3671c1.4792 1.6408 1.3482 4.1701-.2926 5.6493l-3.578 3.2256c-2.0115 1.8135-4.9388 2.0264-7.1647.653l-2.3027 2.0759c-1.6408 1.4792-4.1701 1.3482-5.6493-.2926s-1.3482-4.17.2926-5.6492l3.578-3.2257c2.0115-1.8134 4.9388-2.0263 7.1647-.653l2.3027-2.0759c1.6408-1.4792 4.1701-1.3482 5.6493.2926z"/><path d="m24.3217 21.0164c-1.6408-1.4792-1.7718-4.0085-.2926-5.6493s4.0085-1.7718 5.6493-.2926l2.3027 2.0759c2.2259-1.3733 5.1532-1.1604 7.1647.653l3.578 3.2257c1.6408 1.4792 1.7718 4.0084.2926 5.6492s-4.0085 1.7718-5.6493.2926l-2.3027-2.0759c-2.2258 1.3734-5.1531 1.1605-7.1647-.653z"/><path d="m65 89v9c0 5.523-4.4772 10-10 10-5.5229 0-10-4.477-10-10v-9z"/><path clip-rule="evenodd" d="m76 80c13.8071 0 25-11.1929 25-25s-11.1929-25-25-25-25 11.1929-25 25 11.1929 25 25 25zm0-40c2.2091 0 4 1.7909 4 4v10.5c0 2.2091-1.7909 4-4 4s-4-1.7909-4-4v-10.5c0-2.2091 1.7909-4 4-4zm4 26c0 2.2091-1.7909 4-4 4s-4-1.7909-4-4 1.7909-4 4-4 4 1.7909 4 4z" fill-rule="evenodd"/></g></svg>