<svg fill="none" height="512" viewBox="0 0 128 128" width="512" xmlns="http://www.w3.org/2000/svg"><g fill="#1977cc"><path d="m32.0291 15.3671c-1.4792 1.6408-1.3482 4.1701.2926 5.6493l3.578 3.2256c2.0116 1.8135 4.9389 2.0264 7.1647.653l2.3027 2.0759c1.6408 1.4792 4.1701 1.3482 5.6493-.2926s1.3482-4.17-.2926-5.6492l-3.578-3.2257c-2.0115-1.8134-4.9388-2.0263-7.1647-.653l-2.3027-2.0759c-1.6408-1.4792-4.1701-1.3482-5.6493.2926z"/><path d="m95.7238 21.0164c1.6408-1.4792 1.7718-4.0085.2926-5.6493s-4.0085-1.7718-5.6493-.2926l-2.3027 2.0759c-2.2259-1.3733-5.1532-1.1604-7.1647.653l-3.578 3.2257c-1.6408 1.4792-1.7718 4.0084-.2926 5.6492s4.0085 1.7718 5.6493.2926l2.3027-2.0759c2.2259 1.3734 5.1532 1.1605 7.1647-.653z"/><path d="m90.417 47.3591c2.0341.8619 4.3817-.0883 5.2437-2.1223.8619-2.0341-.0883-4.3818-2.1223-5.2437l-2.8546-1.2096c.3039-2.5978-1.1261-5.1608-3.6198-6.2175l-4.4355-1.8796c-2.0341-.8619-4.3818.0883-5.2437 2.1223-.8619 2.0341.0883 4.3817 2.1223 5.2437l2.8546 1.2096c-.304 2.5977 1.1261 5.1608 3.6198 6.2175z"/><path d="m37.6284 47.3591c-2.034.8619-4.3817-.0883-5.2436-2.1223-.862-2.0341.0882-4.3818 2.1223-5.2437l2.8546-1.2096c-.304-2.5978 1.1261-5.1608 3.6197-6.2175l4.4356-1.8796c2.034-.8619 4.3817.0883 5.2436 2.1223.862 2.0341-.0882 4.3817-2.1223 5.2437l-2.8546 1.2096c.304 2.5977-1.1261 5.1608-3.6197 6.2175z"/></g><path clip-rule="evenodd" d="m54.5 18c0-2.2091 1.7909-4 4-4h6.5c4.9706 0 9 4.0294 9 9v7c0 .0169-.0001.0337-.0003.0506.0002.0188.0003.0376.0003.0565v6.3902c0 .9802.2881 1.9387.8284 2.7564l3.3432 5.0596c.5403.8178.8284 1.7763.8284 2.7565v36.9302c0 2.7614-2.2386 5-5 5v9c0 4.101-2.4682 7.625-6 9.168v2.832c0 2.209-1.7909 4-4 4s-4-1.791-4-4v-2.832c-3.5318-1.543-6-5.067-6-9.168v-9c-2.7614 0-5-2.2386-5-5 0-12.3108 0-24.6217 0-36.9302 0-.9802.2881-1.9387.8284-2.7565l3.3432-5.0596c.5403-.8177.8284-1.7762.8284-2.7564v-6.3902c0-2.7614 2.2386-5 5-5h7v-2.1071c0-.5523-.4477-1-1-1h-6.5c-2.2091 0-4-1.7909-4-4zm11.5 18.4973v-3.3902h-4v3.3902c0 2.5484-.749 5.0405-2.1539 7.1667l-2.8461 4.3074v.0286h14v-.0286l-2.8461-4.3074c-1.4049-2.1262-2.1539-4.6183-2.1539-7.1667zm0 52.5027h-4v9c0 1.1046.8954 2 2 2s2-.8954 2-2zm5-33v25h-14v-25z" fill="#000" fill-rule="evenodd"/><path d="m74 89v9c0 5.523-4.4772 10-10 10-5.5229 0-10-4.477-10-10v-9z" fill="#1977cc"/></svg>