<svg fill="none" height="512" viewBox="0 0 128 128" width="512" xmlns="http://www.w3.org/2000/svg"><path d="m61.0467 63.8752c2.1339-.5717 3.4002-2.7651 2.8285-4.8989-.5718-2.1339-2.7651-3.4002-4.899-2.8285-2.1339.5718-3.4002 2.7652-2.8284 4.899.5717 2.1339 2.7651 3.4002 4.8989 2.8284z" fill="#1977cc"/><g clip-rule="evenodd" fill-rule="evenodd"><path d="m61.3387 73.1558 2.2443 8.376c1.7403 6.495-3.7579 14.1408-11.7863 12.1778-5.9515-1.4552-11.4184-4.4657-15.8255-8.6973-6.1344-5.8901-2.2555-14.8077 4.3608-16.5806l8.7592-2.347c5.3347-1.4294 10.818 1.7364 12.2475 7.0711zm-19.8268 6.0859c-1.0495-1.0078-.5148-2.706.8906-3.0826l8.7593-2.347c1.0669-.2859 2.1636.3473 2.4494 1.4142l2.2444 8.3761c.3682 1.374-.7771 2.674-2.1588 2.3361-4.5581-1.1144-8.8002-3.447-12.1849-6.6968z" fill="#000"/><path d="m62.6625 105.944c-21.3356 1.254-41.3355-12.5743-47.0837-34.0269-6.57529-24.5394 7.9875-49.7629 32.5269-56.3383 24.5395-6.57529 49.763 7.9875 56.3383 32.5269 3.042 11.3521 1.56 22.8506-3.341 32.5816l-4.3864 8.3127s-3.2769-10.9885-10.2051-10.9885l-11.9357 21.9995c-2.0643 2.5-2.7878 3.5-11.9133 5.933zm33.4173-33.9578c2.27-6.8162 2.6353-14.3513.6368-21.8099-3.6627-13.6693-14.3298-23.5913-27.105-26.939l-.8389 3.2136c7.1273 1.8683 13.532 5.978 18.1951 11.7313 4.9224 6.0732 1.0672 14.0305-5.1852 15.7058l-1.4878.3986c-2.8514.764-5.8778.5349-8.5816-.6497l-5.972-2.6166c-.416-.1822-.8816-.2175-1.3203-.0999l-12.7737 3.4227c-.4387.1175-.8243.3809-1.0934.7467l-3.8637 5.252c-1.7492 2.3778-4.2556 4.0895-7.107 4.8535l-1.4878.3987c-6.2524 1.6753-13.5698-3.2883-12.3434-11.0091 1.1546-7.2692 4.6109-13.9928 9.7958-19.1619l-2.3425-2.3544c-9.3165 9.2865-13.5479 23.1598-9.899 36.7779 4.7899 17.8762 21.559 29.3435 39.3563 28.0794 3.3063-.2348 6.7051-.7112 9.349-2.9144 3.6063-3.0053 8-8 8-8l-5.4357.5c-3.5643-.5-5.9072-3.3822-6.8973-7.0771l-2.2443-8.376c-1.4294-5.3347 1.7364-10.818 7.071-12.2475l8.7593-2.347c6.0836-1.6301 13.1833 3.1284 12.4465 10.2551-.2574 2.4897-.9143 5.1505-2.1995 7.2925.3242.3724 1.0034 3.0438 2.1995 2 .7615-.6646 1.2897-1.7852 2.3688-5.0253zm-10.4059-4.6715c.3153-1.3538-.9674-2.4909-2.3389-2.1234l-8.7592 2.3471c-1.0669.2858-1.7001 1.3825-1.4142 2.4494l2.2443 8.3761c.2191.8176 1.1056 1.6476 2.1056 1.6476 6.5-2 8-9.5 8.1624-12.6968zm-41.5642-16.9655c1.3455-1.8291 3.2736-3.1458 5.4669-3.7335l12.7738-3.4227c2.1933-.5877 4.5214-.4115 6.6012.4998l5.972 2.6165c1.0399.4556 2.2039.5438 3.3006.2499l1.4879-.3986c1.3133-.352 1.8969-1.8849 1.0407-2.9411-6.5173-8.0411-17.5336-11.6888-27.6467-8.979s-17.8296 11.3769-19.4533 21.5994c-.2133 1.3428 1.0586 2.3786 2.3719 2.0266l1.4879-.3986c1.0966-.2939 2.0606-.9522 2.7334-1.8668zm6.8565-23.8339c-3.2171.8687-6.2784 2.1925-9.0954 3.9204l-2.3891-2.4012c3.2655-2.0965 6.8462-3.689 10.6231-4.709 3.7769-1.0199 7.6726-1.4462 11.5495-1.2785l-.8556 3.2774c-3.3039-.075-6.6154.3221-9.8325 1.1909z" fill="#000"/><path d="m92.3301 71.5c-1.9245-3.3333-6.7357-3.3333-8.6602 0l-19.9186 34.5c-1.9245 3.333.4811 7.5 4.3301 7.5h39.8376c3.849 0 6.254-4.167 4.33-7.5zm-4.3301 10.5c2.2091 0 4 1.7909 4 4v8.5c0 2.2091-1.7909 4-4 4s-4-1.7909-4-4v-8.5c0-2.2091 1.7909-4 4-4zm4 23c0 2.209-1.7909 4-4 4s-4-1.791-4-4 1.7909-4 4-4 4 1.791 4 4z" fill="#1977cc"/></g></svg>