<svg fill="none" height="512" viewBox="0 0 128 128" width="512" xmlns="http://www.w3.org/2000/svg"><g clip-rule="evenodd" fill-rule="evenodd"><path d="m101 60.9373c7.747-4.247 13-12.4787 13-21.9373 0-13.8071-11.193-25-25-25-7.242 0-13.7648 3.0793-18.3305 8h-40.5819c-8.885 0-16.0876 20.5949-16.0876 46s7.2026 46 16.0876 46h44.9124c4.2883 0 8.1826-4.85 11.0553-12.747.6339 7.145 6.6351 12.747 13.9447 12.747 7.732 0 14-6.268 14-14v-12c0-2.2091-1.791-4-4-4s-4 1.7909-4 4v12c0 3.314-2.686 6-6 6-3.3137 0-6-2.686-6-6v-19h2c2.7614 0 5-2.2386 5-5v-15c0-.0209 0-.0419 0-.0627zm-14-2.9373c9.3888 0 19-9.6112 19-19s-7.6112-17-17-17-17 7.6112-17 17 5.6112 19 15 19zm-7.6459 21.4216c-1.1918 10.1528-3.9267 17.9574-7.3105 20.6034 3.2285 7.895 4.0971 5.398 6.7059-2.1027l.0082-.0235c1.5726-4.5211 2.8289-10.3147 3.5548-16.9457-1.1607-.1596-2.1943-.7176-2.9584-1.5315zm-14.4484-47.1134c.2177-.7856.4728-1.5557.7633-2.3082h-13.908c-2.0418 1.7014-3.2174 4.6348-4.1234 7.1662l16.9719-4.1476c.0977-.2402.1964-.4769.2962-.7104zm6.3982 24.351c-1.1246-1.1269-2.1422-2.3605-3.0363-3.6844-.7846 4.274-1.2676 9.4041-1.2676 15.0252 0 8.1623 1.0183 15.2892 2.5 20.2632 1.4817-4.974 2.5-12.1009 2.5-20.2632 0-4.0865-.2553-7.9136-.6961-11.3408zm-11.8399 22.3831c.3053 3.5627.755 6.962 1.3302 10.1436l-14.7745 4.5302c-.7933-2.9644-1.4628-6.3017-1.9682-9.9315zm-10.8713 22.2527 13.9884-4.2894c.9752 3.4474 2.1207 6.4804 3.3995 8.9944h-14.2196c-1.3986-1.165-2.3908-2.909-3.1683-4.705zm-12.5695-17.1797c.4404 3.3389 1.0137 6.4939 1.7016 9.4131l-13.6729-3.8278c-.6138-2.9795-1.1114-6.2394-1.4629-9.7189zm4.5176 18.5087-13.9889-3.9159c.9047 2.5569 2.0672 5.5309 4.1149 7.2919h11.4094c-.5358-1.039-1.0484-2.167-1.5354-3.376zm18.4927-31.6249c-.0222-.9915-.0335-1.9915-.0335-2.9991 0-2.4934.069-4.9404.2018-7.3262l-16.1725 4.6207c-.0752 3.4574-.0084 6.9186.2097 10.37 4.728-1.4548 15.7945-4.6654 15.7945-4.6654zm-36.9862.4458 13.167 4.0514c-.2069-3.5799-.2627-7.1687-.1743-10.7534l-12.8469-3.6705c-.1947 3.4532-.2411 6.9151-.1458 10.3725zm37.8538-19.291-16.3871 4.682c.3674-3.8956.919-7.5265 1.6134-10.8099l16.6945-4.1213c-.7555 3.1477-1.3782 6.5795-1.8445 10.2282l-.0417.0113zm-36.9595.8122 12.5643 3.5898c.3372-3.735.8356-7.2868 1.4729-10.5925l-11.8913-4.0319c-.8823 3.2536-1.6157 6.9682-2.1459 11.0346zm15.9339-14.8069c.9336-3.1035 2.0101-5.8505 3.2007-8.1592h-11.4094c-1.2907 1.1103-2.2297 2.7019-2.9742 4.3674zm48.1245 28.8408v5h5v-5z" fill="#000"/><path d="m89 64c13.807 0 25-11.1929 25-25s-11.193-25-25-25c-13.8071 0-25 11.1929-25 25s11.1929 25 25 25zm.8284-18.1716c1.5621-1.5621 1.5621-4.0947 0-5.6568s-4.0947-1.5621-5.6568 0l-7 7c-1.5621 1.5621-1.5621 4.0947 0 5.6568s4.0947 1.5621 5.6568 0z" fill="#1977cc"/></g></svg>