<svg fill="none" height="512" viewBox="0 0 128 128" width="512" xmlns="http://www.w3.org/2000/svg"><path clip-rule="evenodd" d="m104 92.7128v-68.6454c0-5.5601-4.5074-10.0674-10.0675-10.0674-5.56 0-10.0674 4.5073-10.0674 10.0674v21.1979c0 .5523-.4477 1-1 1h-10.4644c-.5523 0-1-.4477-1-1v-21.1979c0-5.5601-4.5074-10.0674-10.0675-10.0674-5.56 0-10.0674 4.5073-10.0674 10.0674v21.1979c0 .5523-.4477 1-1 1h-10.4644c-.5523 0-1-.4477-1-1v-21.1979c0-5.5601-4.5074-10.0674-10.0675-10.0674s-10.0674 4.5073-10.0674 10.0674v21.7764c-2.8694 2.6492-4.6665 6.4429-4.6665 10.6562s1.7971 8.007 4.6665 10.6562v21.2356c0 5.5601 4.5073 10.0674 10.0674 10.0674s10.0675-4.5073 10.0675-10.0674v-21.1979c0-.5523.4477-1 1-1h10.4644c.5523 0 1 .4477 1 1v21.1979c0 5.5601 4.5074 10.0674 10.0674 10.0674 5.5733 0 10.0675-4.4433 10.0675-10.0674v-21.1979c0-.5523.4477-1 1-1h10.4644c.5523 0 1 .4477 1 1v13.8061h11.1349v13.3423zm-61.1711-38.4475c.1126.7284.1711 1.4747.1711 2.2347 0 .573-.0332 1.1382-.0979 1.6939h7.3637c4.9706 0 9 4.0294 9 9v21.1979c0 1.1418.9256 2.0674 2.0674 2.0674 1.1419 0 2.0675-.9256 2.0675-2.0674v-21.1979c0-4.9706 4.0294-9 9-9h10.4644c4.9706 0 9 4.0294 9 9v7.6653c1.8179.8563 3.1433 2.2797 4.1349 3.9972v-54.789c0-1.1418-.9256-2.0674-2.0675-2.0674-1.1418 0-2.0674.9256-2.0674 2.0674v21.1979c0 4.9706-4.0294 9-9 9h-10.4644c-4.9706 0-9-4.0294-9-9v-21.1979c0-1.1418-.9256-2.0674-2.0675-2.0674-1.1418 0-2.0674.9256-2.0674 2.0674v21.1979c0 4.9706-4.0294 9-9 9zm-12.0275 16.5531c-.7495.1195-1.5182.1816-2.3014.1816-.6211 0-1.233-.039-1.8335-.1148v17.5066c0 1.1418.9256 2.0674 2.0674 2.0674 1.1419 0 2.0675-.9256 2.0675-2.0674zm0-46.751v18.1142c-.7495-.1195-1.5182-.1816-2.3014-.1816-.6211 0-1.233.039-1.8335.1148v-18.0474c0-1.1418.9256-2.0674 2.0674-2.0674 1.1419 0 2.0675.9256 2.0675 2.0674zm4.1986 32.4326c0 3.5899-2.9101 6.5-6.5 6.5s-6.5-2.9101-6.5-6.5 2.9101-6.5 6.5-6.5 6.5 2.9101 6.5 6.5z" fill="#000" fill-rule="evenodd"/><g fill="#1977cc"><path d="m43 56.5c0 8.0081-6.4919 14.5-14.5 14.5s-14.5-6.4919-14.5-14.5 6.4919-14.5 14.5-14.5 14.5 6.4919 14.5 14.5z"/><path clip-rule="evenodd" d="m93.3301 71.5c-1.9245-3.3333-6.7357-3.3333-8.6602 0l-19.9186 34.5c-1.9245 3.333.4811 7.5 4.3301 7.5h39.8376c3.849 0 6.254-4.167 4.33-7.5zm-4.3301 10.5c2.2091 0 4 1.7909 4 4v8.5c0 2.2091-1.7909 4-4 4s-4-1.7909-4-4v-8.5c0-2.2091 1.7909-4 4-4zm4 23c0 2.209-1.7909 4-4 4s-4-1.791-4-4 1.7909-4 4-4 4 1.791 4 4z" fill-rule="evenodd"/></g></svg>