<svg fill="none" height="512" viewBox="0 0 128 128" width="512" xmlns="http://www.w3.org/2000/svg"><path clip-rule="evenodd" d="m104 68.9982v-44.9308c0-5.5601-4.5073-10.0674-10.0674-10.0674s-10.0675 4.5073-10.0675 10.0674v21.1979c0 .5523-.4477 1-1 1h-10.4644c-.5523 0-1-.4477-1-1v-21.1979c0-5.5601-4.5073-10.0674-10.0674-10.0674s-10.0675 4.5073-10.0675 10.0674v21.1979c0 .5523-.4477 1-1 1h-10.4644c-.5523 0-1-.4477-1-1v-21.1979c0-5.5601-4.5073-10.0674-10.0674-10.0674s-10.0675 4.5073-10.0675 10.0674v32.1413.0209.0209 21.5933c-2.8694 2.6492-4.6665 6.4428-4.6665 10.6562 0 8.0081 6.4919 14.5 14.5 14.5s14.5-6.4919 14.5-14.5c0-3.9794-1.603-7.5844-4.1986-10.2045v-11.1016c0-.5523.4477-1 1-1h10.4644c.5523 0 1 .4477 1 1v21.1979c0 5.5601 4.5074 10.0674 10.0675 10.0674 1.4873 0 2.8993-.3225 4.1698-.9015 3.4945 9.5923 12.6958 16.4423 23.4969 16.4423 13.807 0 25-11.193 25-25 0-8.1791-3.928-15.4408-10-20.0018zm-77.3335 5.1166c.6005-.0758 1.2124-.1148 1.8335-.1148.7832 0 1.5519.0621 2.3014.1816v-6.9877c0-4.9706 4.0294-9 9-9h10.4644c4.9706 0 9 4.0294 9 9v21.1979c0 1.1418.9257 2.0674 2.0675 2.0674s2.0674-.9256 2.0674-2.0674v-21.1979c0-4.9706 4.0294-9 9-9h10.4644c3.8859 0 7.1966 2.4627 8.4565 5.9125 1.6084.1481 3.1728.4486 4.6784.8868v-40.9258c0-1.1418-.9256-2.0674-2.0674-2.0674s-2.0675.9256-2.0675 2.0674v21.1979c0 4.9706-4.0294 9-9 9h-10.4644c-4.9706 0-9-4.0294-9-9v-21.1979c0-1.1418-.9256-2.0674-2.0674-2.0674s-2.0675.9256-2.0675 2.0674v21.1979c0 4.9706-4.0294 9-9 9h-10.4644c-4.9706 0-9-4.0294-9-9v-21.1979c0-1.1418-.9256-2.0674-2.0674-2.0674-1.1419 0-2.0675.9256-2.0675 2.0674v32.1495.0127.0127zm44.7342-2.8705c2.1121-2.0936 4.5957-3.8129 7.3431-5.0504h-6.3431c-.5523 0-1 .4477-1 1zm-36.4007 17.2557c0 3.5899-2.9101 6.5-6.5 6.5s-6.5-2.9101-6.5-6.5 2.9101-6.5 6.5-6.5 6.5 2.9101 6.5 6.5zm71 .5c0 9.3888-7.6112 17-17 17s-17-7.6112-17-17 7.6112-17 17-17 17 7.6112 17 17z" fill="#000" fill-rule="evenodd"/><g fill="#1977cc"><path d="m43 88.5c0 8.0081-6.4919 14.5-14.5 14.5s-14.5-6.4919-14.5-14.5 6.4919-14.5 14.5-14.5 14.5 6.4919 14.5 14.5z"/><path clip-rule="evenodd" d="m89 114c13.807 0 25-11.193 25-25 0-13.8071-11.193-25-25-25-13.8071 0-25 11.1929-25 25 0 13.807 11.1929 25 25 25zm3.9497-37.435c-1.5621-1.5621-4.0947-1.5621-5.6568 0l-1.4142 1.4142c-2.8996 2.8996-3.6463 7.1368-2.2401 10.7253l-4.831 4.831c-1.5621 1.5621-1.5621 4.0947 0 5.6568 1.5621 1.5617 4.0947 1.5617 5.6568 0l4.831-4.8309c3.5885 1.4062 7.8258.6596 10.7256-2.24l1.414-1.4143c1.562-1.5621 1.562-4.0947 0-5.6568-1.5621-1.5621-4.0948-1.5621-5.6569 0l-1.4142 1.4142c-.7787.7788-2.04.781-2.8215.0068l-.0069-.0069-.0068-.0068c-.7742-.7816-.772-2.0428.0068-2.8215l1.4142-1.4142c1.5621-1.5621 1.5621-4.0948 0-5.6569z" fill-rule="evenodd"/></g></svg>