<svg fill="none" height="512" viewBox="0 0 128 128" width="512" xmlns="http://www.w3.org/2000/svg"><g clip-rule="evenodd" fill-rule="evenodd"><path d="m99 48c-2.0503 0-3.8124-1.2341-4.584-3h-.6859c-.6706 0-1.1512.6472-.9805 1.2957.8333 3.1641 1.2504 6.4331 1.2504 9.7043 0 4.944-.9442 9.6675-2.662 14h-8.7982c2.2093-4.1794 3.4602-8.9436 3.4602-14 0-2.6604-.3443-5.2283-.9866-7.6669-1.5459-5.87 3.0805-11.3331 8.9866-11.3331v-11c-13.1464 0-39.6057.042-39.6057.042-15.8184.8307-28.3943 13.9283-28.3943 29.958 0 16.5686 13.4315 30 30 30 8.6922 0 16.521-3.6967 22-9.6037v10.5913c-6.2085 4.4158-13.801 7.0124-22 7.0124-3.825 0-7.518-.5651-11-1.6164v1.0324c1.7659.7716 3 2.5337 3 4.584v11c0 2.761-2.2386 5-5 5h-24c-2.7614 0-5-2.239-5-5v-11c0-2.419 1.7178-4.4367 4-4.9v-37.1c0-20.3074 15.9295-36.8943 35.9747-37.947.0141-.0007.0253-.0123.0253-.0265 0-.0146.0119-.0265.0265-.0265h40.0735c.4633-2.2822 2.481-4 4.9-4h11c2.761 0 5 2.2386 5 5v24c0 2.7614-2.239 5-5 5zm-73 31.3267c3.0065 3.8611 6.7421 7.1266 11 9.5896v4.0837h-11zm76-39.3267v-18h5v18zm-80 66h18v-5h-18z" fill="#000"/><path d="m78 56c0 12.1503-9.8497 22-22 22s-22-9.8497-22-22 9.8497-22 22-22 22 9.8497 22 22zm-24.9814 13.6819c.9359-1.8176 1.1376-3.3893.8823-5.1119-1.8576 1.28-3.9381 2.2132-6.1269 2.7596 1.5407 1.1206 3.3188 1.9346 5.2446 2.3523zm8.5929-7.4526c.4115 2.0047.5603 4.1947.1138 6.5503 1.6101-.7224 3.0589-1.7402 4.2774-2.9844-1.1978-1.9131-2.5731-2.9125-4.3912-3.5659zm3.1617-17.1401c-2.8167.7779-4.9925 2.2146-6.771 3.8244.041-1.9864.7662-3.6017 1.5345-5.3131.151-.3363.3037-.6765.4531-1.0238 1.7652.5239 3.3848 1.3865 4.7834 2.5125zm-13.7003-2.1976c-.8734 2.5185-1.2298 5.1945-1.0043 7.8516-1.6603-1.1005-2.7013-2.602-3.8017-4.1891-.0841-.1214-.1686-.2432-.2538-.3655 1.4138-1.4389 3.1361-2.5736 5.0598-3.297zm-3.024 15.8667c-1.3817.6879-3.1181 1.1684-5.4763 1.2175-.5373-1.8173-.6973-3.7428-.4765-5.6246 1.6766 1.8421 3.6977 3.3485 5.9528 4.4071zm15.7186-4.2533c1.7322-1.4655 3.5776-1.8813 5.7833-2.0363.4678 1.7998.5707 3.6928.3071 5.5334-1.9149-1.7549-4.0192-2.8081-6.0904-3.4971z" fill="#000"/><path d="m92.3301 60.5c-1.9245-3.3333-6.7357-3.3333-8.6602 0l-19.9186 34.5c-1.9245 3.3333.4811 7.5 4.3301 7.5h39.8376c3.849 0 6.254-4.1667 4.33-7.5zm-4.3301 10.5c2.2091 0 4 1.7909 4 4v8.5c0 2.2091-1.7909 4-4 4s-4-1.7909-4-4v-8.5c0-2.2091 1.7909-4 4-4zm4 23c0 2.2091-1.7909 4-4 4s-4-1.7909-4-4 1.7909-4 4-4 4 1.7909 4 4z" fill="#1977cc"/></g></svg>