<svg fill="none" height="512" viewBox="0 0 128 128" width="512" xmlns="http://www.w3.org/2000/svg"><g clip-rule="evenodd" fill-rule="evenodd"><path d="m94.416 45c.7716 1.7659 2.5337 3 4.584 3h11c2.761 0 5-2.2386 5-5v-24c0-2.7614-2.239-5-5-5h-11c-2.419 0-4.4367 1.7178-4.9 4h-40.0735c-.0146 0-.0265.0119-.0265.0265 0 .0142-.0112.0258-.0253.0265-20.0452 1.0527-35.9747 17.6396-35.9747 37.947v37.1c-2.2822.4633-4 2.481-4 4.9v11c0 2.761 2.2386 5 5 5h24c2.7614 0 5-2.239 5-5v-11c0-2.0503-1.2341-3.8124-3-4.584v-1.0324c3.482 1.0513 7.175 1.6164 11 1.6164 7.3383 0 14.1908-2.0801 20-5.6828v-9.9561c-5.3076 4.7504-12.3165 7.6389-20 7.6389-16.5685 0-30-13.4314-30-30 0-16.0297 12.5759-29.1273 28.3943-29.958 0 0 26.4593-.042 39.6057-.042v11c-5.9061 0-10.5325 5.4631-8.9866 11.3331.6423 2.4386.9866 5.0065.9866 7.6669 0 2.7704-.3755 5.4531-1.0785 8h8.2349c.5527-2.5793.8436-5.2557.8436-8 0-3.2712-.4171-6.5402-1.2504-9.7043-.1707-.6485.3099-1.2957.9805-1.2957zm-57.416 43.9163c-4.2579-2.463-7.9935-5.7285-11-9.5896v13.6733h11zm65-66.9163v18h5v-18zm-62 84h-18v-5h18z" fill="#000"/><path d="m78 56c0-12.1503-9.8497-22-22-22s-22 9.8497-22 22 9.8497 22 22 22c12.0917 0 22-10.5783 22-22zm-24.0991 8.57c.2553 1.7226.0536 3.2943-.8823 5.1119-1.9258-.4177-3.7039-1.2317-5.2446-2.3523 2.1888-.5464 4.2693-1.4796 6.1269-2.7596zm7.8244 4.2096c.4465-2.3556.2977-4.5456-.1138-6.5503 1.8181.6534 3.1934 1.6528 4.3912 3.5659-1.2185 1.2442-2.6673 2.262-4.2774 2.9844zm-3.7231-19.866c1.7785-1.6098 3.9543-3.0465 6.771-3.8244-1.3986-1.126-3.0182-1.9886-4.7834-2.5125-.1493.3471-.3019.687-.4528 1.0231-.7683 1.7115-1.4938 3.3274-1.5348 5.3138zm-7.9336 1.8296c-.2255-2.6571.1309-5.3331 1.0043-7.8516-1.9237.7234-3.646 1.8581-5.0598 3.297.0852.1223.1697.2441.2538.3655 1.1004 1.5871 2.1414 3.0886 3.8017 4.1891zm-7.496 9.2326c2.3582-.0491 4.0946-.5296 5.4763-1.2175-2.2551-1.0586-4.2762-2.565-5.9528-4.4071-.2208 1.8818-.0608 3.8073.4765 5.6246zm26.9782-7.5071c-2.2057.155-4.0511.5708-5.7833 2.0363 2.0712.689 4.1755 1.7422 6.0904 3.4971.2636-1.8406.1607-3.7336-.3071-5.5334z" fill="#000"/><path d="m89 104c13.807 0 25-11.1929 25-25s-11.193-25-25-25c-13.8071 0-25 11.1929-25 25s11.1929 25 25 25zm3.9498-37.435c-1.5621-1.5621-4.0948-1.5621-5.6569 0l-1.4142 1.4142c-2.8995 2.8996-3.6462 7.1367-2.2401 10.7252l-4.831 4.8311c-1.5621 1.5621-1.5621 4.0947 0 5.6568s4.0947 1.5621 5.6568 0l4.831-4.8309c3.5885 1.4062 7.8258.6596 10.7256-2.24l1.414-1.4143c1.562-1.5621 1.562-4.0947 0-5.6568s-4.0947-1.5621-5.6568 0l-1.4142 1.4142c-.7811.781-2.0474.781-2.8284 0-.7811-.781-.7811-2.0474 0-2.8284l1.4142-1.4142c1.5621-1.5621 1.5621-4.0948 0-5.6569z" fill="#1977cc"/></g></svg>