<svg id="Layer_1" enable-background="new 0 0 33 33" height="33" viewBox="0 0 33 33" width="33" xmlns="http://www.w3.org/2000/svg"><g><g><g><path d="m14.611.601-.299 1.273c-.031.135-.031.389 0 .523l.963 4.102c.057.24.057.602.001.842l-.964 4.104c-.031.135-.031.389 0 .525l.963 4.102c.057.24.057.604.001.844l-.964 4.102c-.031.135-.031.389 0 .523l.963 4.105c.057.24.057.602.001.842l-.964 4.109c-.031.135-.031.389 0 .523l.301 1.279c1.802-.15 3.222-1.643 3.222-3.484v-24.83c0-1.842-1.421-3.336-3.224-3.484z" fill="#414042"/></g><g><path d="m13.896.571h-4.763l-.307 1.303c-.03.135-.03.389.001.523l.963 4.102c.057.24.057.602.001.842l-.965 4.104c-.03.135-.03.389.001.525l.963 4.102c.057.24.057.604.001.844l-.965 4.102c-.03.135-.03.389.001.523l.963 4.105c.057.24.057.602.001.842l-.965 4.109c-.03.135-.03.389.001.523l.307 1.309h4.765l-.27-1.148c-.057-.24-.057-.604-.001-.844l.964-4.107c.031-.135.031-.389 0-.525l-.963-4.105c-.057-.242-.057-.604-.001-.844l.964-4.102c.031-.133.031-.389 0-.523l-.963-4.104c-.057-.24-.057-.602-.001-.842l.964-4.104c.031-.135.031-.389 0-.525l-.963-4.1c-.057-.242-.057-.604-.001-.844z" fill="#414042"/></g><g><path d="m8.144 31.28c-.057-.24-.057-.604-.001-.844l.964-4.107c.031-.135.031-.389 0-.525l-.963-4.104c-.057-.242-.057-.604-.001-.844l.964-4.102c.031-.133.031-.389 0-.523l-.963-4.104c-.057-.24-.057-.602-.001-.842l.964-4.104c.031-.135.031-.389 0-.525l-.963-4.1c-.057-.241-.057-.602-.001-.842l.269-1.143h-4.397c-.129 0-.252.023-.376.037l-.298 1.266c-.03.135-.03.389.001.523l.963 4.102c.057.24.057.602.001.842l-.965 4.104c-.03.135-.03.389.001.525l.963 4.102c.057.24.057.604.001.844l-.965 4.102c-.03.135-.03.389.001.523l.963 4.105c.057.24.057.602.001.842l-.965 4.109c-.03.135-.03.389.001.523l.298 1.271c.125.014.246.037.375.037h4.398z" fill="#414042"/></g><g><path d="m2.657 31.28c-.056-.24-.056-.604 0-.844l.964-4.107c.031-.135.031-.389-.001-.525l-.963-4.104c-.056-.242-.056-.604 0-.844l.964-4.102c.031-.133.031-.389-.001-.523l-.963-4.104c-.056-.24-.056-.602 0-.842l.964-4.104c.031-.133.031-.387-.001-.524l-.963-4.1c-.056-.242-.056-.604 0-.844l.22-.939c-1.379.475-2.377 1.77-2.377 3.311v24.83c0 1.541.999 2.838 2.379 3.311z" fill="#414042"/></g></g><g><g><path d="m26.608 9.401h.646v1.291h-.646z" fill="#00a79d"/></g></g><g><g><path d="m24.995 9.833h.644v1.29h-.644z" fill="#00a79d" transform="matrix(.866 -.5 .5 .866 -1.846 14.074)"/></g></g><g><g><path d="m23.815 11.015h.643v1.29h-.643z" fill="#00a79d" transform="matrix(.5 -.866 .866 .5 1.972 26.735)"/></g></g><g><g><path d="m23.059 12.95h1.29v.646h-1.29z" fill="#00a79d"/></g></g><g><g><path d="m28.223 9.833h.644v1.29h-.644z" fill="#00a79d" transform="matrix(-.866 -.5 .5 -.866 48.016 33.834)"/></g></g><g><g><path d="m29.405 11.015h.643v1.29h-.643z" fill="#00a79d" transform="matrix(-.5 -.866 .866 -.5 34.487 43.234)"/></g></g><g><g><path d="m29.514 12.95h1.29v.646h-1.29z" fill="#00a79d"/></g></g><g><g><path d="m28.616 14.466c-.321.605-.951 1.023-1.685 1.023s-1.364-.418-1.686-1.023h-1.998c.503 1.555 1.961 2.68 3.684 2.68 1.722 0 3.18-1.125 3.683-2.68z" fill="#00a79d"/></g></g><g><g><path d="m28.37 11.835c-.068-.07-1.633.596-1.919.883-.286.285-.286.75 0 1.035.286.287.75.287 1.036 0 .287-.285.952-1.85.883-1.918zm-1.438 1.764c-.181 0-.326-.145-.326-.326 0-.18.146-.324.326-.324s.325.145.325.324c0 .181-.146.326-.325.326z" fill="#00a79d"/></g></g><g><path d="m32.5 13.272c0-3.07-2.498-5.568-5.568-5.568-3.071 0-5.569 2.498-5.569 5.568 0 2.611 1.808 4.803 4.235 5.402v.914c0 .307.247.553.553.553h1.562c.306 0 .553-.246.553-.553v-.914c2.426-.599 4.234-2.79 4.234-5.402zm-5.568 4.559c-2.513 0-4.558-2.045-4.558-4.559 0-2.512 2.045-4.557 4.558-4.557 2.512 0 4.557 2.045 4.557 4.557-.001 2.514-2.046 4.559-4.557 4.559z" fill="#00a79d"/></g><path d="m26.334 20.831v4.77c0 .311-.104 3.023-3.69 3.023h-4.105v1.193h4.105c3.864 0 4.885-2.758 4.885-4.217v-4.77h-1.195z" fill="#00a79d"/></g></svg>