<svg fill="none" height="512" viewBox="0 0 128 128" width="512" xmlns="http://www.w3.org/2000/svg"><path clip-rule="evenodd" d="m78 47.2811 6.4262.5498c2.5868.2213 4.5738 2.3856 4.5738 4.9818v17.3746c0 2.5962-1.987 4.7605-4.5738 4.9818l-6.4262.5498v5.9994c0 1.1523.398 2.2693 1.1267 3.1619l7.7466 9.4896c.7287.8926 1.1267 2.0096 1.1267 3.1619v11.4683c0 2.761-2.2386 5-5 5h-38c-2.7614 0-5-2.239-5-5v-11.4683c0-1.1523.398-2.2693 1.1267-3.1619l7.7466-9.4896c.7287-.8926 1.1267-2.0096 1.1267-3.1619v-5.9994l-6.4262-.5498c-2.5868-.2213-4.5738-2.3856-4.5738-4.9818v-17.3746c0-2.5962 1.987-4.7605 4.5738-4.9818l6.4262-.5498v-28.2811c0-2.7614 2.2386-5 5-5h18c2.7614 0 5 2.2386 5 5zm-20-.2811h12v-4h-12zm0-12v-3h12v3zm0-10h12v-3h-12zm0 51v5.7183c0 2.996-1.0348 5.9-2.9294 8.2209l-7.0706 8.6615v7.3993h32v-7.3993l-7.0706-8.6615c-1.8946-2.3209-2.9294-5.2249-2.9294-8.2209v-5.7183zm23-8.567-5 .4278v-12.7216l5 .4278zm-34-11.866 5-.4278v12.7216l-5-.4278zm21 12.433h-8v-13h8z" fill="#000" fill-rule="evenodd"/><path d="m78 43v-18h-28v18z" fill="#1977cc"/></svg>