<svg fill="none" height="512" viewBox="0 0 128 128" width="512" xmlns="http://www.w3.org/2000/svg"><g clip-rule="evenodd" fill-rule="evenodd"><path d="m100.884 57h8.116c2.761 0 5-2.2386 5-5v-22c0-2.7614-2.239-5-5-5h-11c-2.4189 0-4.4367 1.7178-4.9 4h-29.1c-14.9117 0-27 12.0883-27 27 0 .5691.0176 1.1341.0523 1.6944.075 1.211-.8429 2.2909-2.0523 2.3055-.0001-2.7614-2.2386-4.9999-5-4.9999h-11c-2.7614 0-5 2.2386-5 5v22c0 2.7614 2.2386 5 5 5h11c2.419 0 4.4367-1.7178 4.9-4l29.418-.0018c1.9138 11.9066 12.2357 21.0018 24.682 21.0018 13.807 0 25-11.1929 25-25 0-9.5054-5.305-17.7718-13.116-22zm.116-8v-16h5v16zm-7.3722 5.4275c-.3999-.7188-.6277-1.5465-.6278-2.4273-1.1318.0135-2.0084.9603-2.0546 2.0744.9086.0699 1.8036.1884 2.6824.3529zm-29.3091 20.5699-29.3187.0026v-7c6.2659-.0142 10.3689-5.4408 10.037-10.8-.0245-.3959-.037-.7959-.037-1.2 0-10.4934 8.5066-19 19-19h29v7c-6.2404.0142-10.3355 5.3968-10.0408 10.7347-1.0133.2515-2.0022.5647-2.9625.9356-.1756-8.6844-7.2703-15.6703-15.9967-15.6703-8.8366 0-16 7.1634-16 16 0 9.1113 7.9301 16.5298 17.0022 15.9691-.2882.9856-.5174 1.9964-.6835 3.0283zm-42.3187 4.0026v-16h5v16zm46.0638-16.1075c-1.191.7037-2.5803 1.1075-4.0638 1.1075s-2.8728-.4038-4.0637-1.1075c.0213-.0118.0425-.0238.0637-.0361l4-2.3094 4 2.3094.0274.0157zm-8.0638-9.2737-3.9997 2.3093c.0258-2.9311 1.6279-5.4858 3.9997-6.8578zm8 0 3.9997 2.3092c-.0258-2.931-1.6279-5.4857-3.9997-6.8577zm38 25.3812c0 9.3888-7.6112 17-17 17s-17-7.6112-17-17 7.6112-17 17-17 17 7.6112 17 17z" fill="#000"/><path d="m89 104c13.807 0 25-11.1929 25-25s-11.193-25-25-25c-13.8071 0-25 11.1929-25 25s11.1929 25 25 25zm3.9497-37.435c-1.5621-1.5621-4.0947-1.5621-5.6568 0l-1.4142 1.4142c-2.8996 2.8996-3.6463 7.1368-2.2401 10.7253l-4.831 4.831c-1.5621 1.5621-1.5621 4.0947 0 5.6568s4.0947 1.5621 5.6568 0l4.831-4.8309c3.5885 1.4062 7.8258.6596 10.7256-2.24l1.414-1.4143c1.562-1.5621 1.562-4.0947 0-5.6568-1.5621-1.5621-4.0948-1.5621-5.6569 0l-1.4142 1.4142c-.7787.7788-2.04.781-2.8215.0068l-.0069-.0069-.0068-.0068c-.7742-.7816-.772-2.0428.0068-2.8215l1.4142-1.4142c1.5621-1.5621 1.5621-4.0948 0-5.6569z" fill="#1977cc"/></g></svg>