<svg fill="none" height="512" viewBox="0 0 128 128" width="512" xmlns="http://www.w3.org/2000/svg"><g clip-rule="evenodd" fill-rule="evenodd"><path d="m114 64c0 27.6142-22.3858 50-50 50s-50-22.3858-50-50 22.3858-50 50-50 50 22.3858 50 50zm-50 28c15.464 0 28-12.536 28-28s-12.536-28-28-28-28 12.536-28 28 12.536 28 28 28z" fill="#1977cc"/><path d="m64 95c17.1208 0 31-13.8792 31-31s-13.8792-31-31-31-31 13.8792-31 31 13.8792 31 31 31zm4-8.3466c5.3698-.9417 10.0985-3.746 13.4953-7.7224l-9.846-5.6846c-1.0748.8901-2.3073 1.5964-3.6493 2.0708zm-8-11.3362c-1.4665-.5184-2.8022-1.3137-3.9442-2.3232l-9.7902 5.6524c3.4122 4.127 8.2374 7.043 13.7344 8.007zm-7.8337-9.3151c-.1094-.6511-.1663-1.32-.1663-2.0021 0-.6822.0569-1.351.1663-2.0021l-9.8497-5.6867c-.8526 2.4042-1.3166 4.9923-1.3166 7.6888s.464 5.2846 1.3166 7.6888zm3.8895-10.9962c1.142-1.0094 2.4777-1.8047 3.9442-2.3231v-11.3362c-5.497.964-10.3222 3.8799-13.7344 8.0069zm11.9442-2.3231v-11.3362c5.3698.9417 10.0985 3.746 13.4953 7.7224l-9.846 5.6846c-1.0748-.8901-2.3073-1.5964-3.6493-2.0708zm17.5564 3.2791-9.7932 5.6541c.1553.7705.2368 1.5677.2368 2.384s-.0815 1.6135-.2368 2.384l9.7932 5.6541c.9334-2.5022 1.4436-5.2106 1.4436-8.0381 0-2.8276-.5102-5.5359-1.4436-8.0381zm-17.5564 8.0381c0 2.2091-1.7909 4-4 4s-4-1.7909-4-4 1.7909-4 4-4 4 1.7909 4 4z" fill="#000"/></g></svg>