<svg fill="none" height="512" viewBox="0 0 128 128" width="512" xmlns="http://www.w3.org/2000/svg"><g clip-rule="evenodd" fill-rule="evenodd"><path d="m107.83 58.4451c3.842-4.3956 6.17-10.1485 6.17-16.4451 0-13.8071-11.193-25-25-25-12.0948 0-22.1836 8.5888-24.4999 20h-31.0191c-4.553 0-8.5312 3.0755-9.6777 7.4818l-9.1746 35.2591c-.8241 3.1672 1.5662 6.2591 4.8389 6.2591h22.5388l.4265 2.506c-3.7417 1.2756-6.4329 4.8205-6.4329 8.994 0 5.247 4.2533 9.5 9.5 9.5h3c5.2467 0 9.5-4.253 9.5-9.5 0-4.5615-3.2148-8.3721-7.5023-9.2896l-.3763-2.2104h24.885l.4265 2.506c-3.7417 1.2756-6.4329 4.8205-6.4329 8.994 0 5.247 4.2533 9.5 9.5 9.5h3c5.2467 0 9.5-4.253 9.5-9.5 0-4.5615-3.2148-8.3721-7.5023-9.2896l-.3763-2.2104h25.4116c3.272 0 5.663-3.0919 4.838-6.2591zm-1.83-16.4451c0 9.3888-7.6112 17-17 17s-17-7.6112-17-17 7.6112-17 17-17 17 7.6112 17 17zm-5.006 21.9405c-3.5608 1.9505-7.6479 3.0595-11.994 3.0595-1.9325 0-3.8138-.2193-5.6203-.6343l-3.1665 2.5486 1.5465 9.0857h22.8923zm-36.8158-18.9405h-30.6972c-.9106 0-1.7062.6151-1.9355 1.4964l-8.1974 31.5036h17.2966l-.5687-3.3411-.568.4571c-1.7209 1.3852-4.2389 1.113-5.624-.608-1.3852-1.7209-1.113-4.2389.608-5.6241l20.5-16.5c1.7209-1.3851 4.2389-1.1129 5.6241.6081 1.3851 1.7209 1.1129 4.2389-.6081 5.624l-12.7948 10.2983 1.5465 9.0857h24.885l-.5687-3.3411-.568.4571c-1.7209 1.3852-4.2389 1.113-5.624-.608-1.3852-1.7209-1.113-4.2389.608-5.6241l7.5929-6.1113c-5.9011-3.9609-10.0214-10.3698-10.9067-17.7726zm17.3218 51h-3c-.8284 0-1.5.6716-1.5 1.5s.6716 1.5 1.5 1.5h3c.8285 0 1.5-.6716 1.5-1.5s-.6715-1.5-1.5-1.5zm-36 0h3c.8285 0 1.5.6716 1.5 1.5s-.6715 1.5-1.5 1.5h-3c-.8284 0-1.5-.6716-1.5-1.5s.6716-1.5 1.5-1.5z" fill="#000"/><path d="m89 67c13.807 0 25-11.1929 25-25s-11.193-25-25-25c-13.8071 0-25 11.1929-25 25s11.1929 25 25 25zm3.9498-37.4351c-1.5621-1.5621-4.0948-1.5621-5.6569 0l-1.4142 1.4143c-2.8996 2.8995-3.6463 7.1367-2.2401 10.7252l-4.831 4.8311c-1.5621 1.5621-1.5621 4.0948 0 5.6569s4.0947 1.5621 5.6568 0l4.8311-4.8311c3.5885 1.4063 7.8257.6596 10.7255-2.24l1.414-1.4142c1.562-1.5621 1.562-4.0948 0-5.6569s-4.0947-1.5621-5.6568 0l-1.4142 1.4142c-.7811.7811-2.0474.7811-2.8284 0-.7811-.781-.7811-2.0473 0-2.8284l1.4142-1.4142c1.5621-1.5621 1.5621-4.0948 0-5.6569z" fill="#1977cc"/></g></svg>