<svg fill="none" height="512" viewBox="0 0 128 128" width="512" xmlns="http://www.w3.org/2000/svg"><g clip-rule="evenodd" fill-rule="evenodd"><path d="m77.8342 39h-44.3532c-4.553 0-8.5313 3.0755-9.6778 7.4818l-9.1745 35.2591c-.8242 3.1672 1.5662 6.2591 4.8388 6.2591h22.5389l.4265 2.506c-3.7417 1.2756-6.4329 4.8205-6.4329 8.994 0 5.247 4.2533 9.5 9.5 9.5h3c5.2467 0 9.5-4.253 9.5-9.5 0-4.5615-3.2148-8.3721-7.5023-9.2896l-.3763-2.2104h24.885l.4265 2.506c-3.7417 1.2756-6.4329 4.8205-6.4329 8.994 0 5.247 4.2533 9.5 9.5 9.5h3c5.2467 0 9.5-4.253 9.5-9.5 0-4.5615-3.2148-8.3721-7.5023-9.2896l-.3763-2.2104h25.4116c3.272 0 5.662-3.0919 4.838-6.2591l-5.838-19.7409c4.585-2.0888 4.499-4.1787 1.716-9-34.2426 17.8839-29.0358.7833-31.4148-14zm21.1658 23-9.5 1-9.2868 7.9143 1.5465 9.0857h22.8923zm-21.1658 0c-7.7968 0-11.97-3.9993-9.0829-9l4.4641-6h-39.7344c-.9106 0-1.7063.6151-1.9356 1.4964l-8.1974 31.5036h17.2967l-.5687-3.3411-.568.4571c-1.7209 1.3852-4.2389 1.113-5.624-.608-1.3852-1.7209-1.113-4.2389.608-5.6241l20.5-16.5c1.7209-1.3851 4.2389-1.1129 5.6241.608 1.3851 1.721 1.1129 4.239-.6081 5.6241l-12.7948 10.2983 1.5465 9.0857h24.885l-.5687-3.3411-.568.4571c-1.7209 1.3852-4.2389 1.113-5.624-.608-1.3852-1.7209-1.113-4.2389.608-5.6241zm3.6658 36h-3c-.8284 0-1.5.6716-1.5 1.5 0 .828.6716 1.5 1.5 1.5h3c.8285 0 1.5-.672 1.5-1.5 0-.8284-.6715-1.5-1.5-1.5zm-36 0h3c.8285 0 1.5.6716 1.5 1.5 0 .828-.6715 1.5-1.5 1.5h-3c-.8284 0-1.5-.672-1.5-1.5 0-.8284.6716-1.5 1.5-1.5z" fill="#000"/><path d="m93.3301 22.5c-1.9245-3.3333-6.7357-3.3333-8.6602 0l-19.9186 34.5c-1.9245 3.3333.4811 7.5 4.3301 7.5h39.8376c3.849 0 6.254-4.1667 4.33-7.5zm-4.3301 10.5c2.2091 0 4 1.7909 4 4v8.5c0 2.2091-1.7909 4-4 4s-4-1.7909-4-4v-8.5c0-2.2091 1.7909-4 4-4zm4 23c0 2.2091-1.7909 4-4 4s-4-1.7909-4-4 1.7909-4 4-4 4 1.7909 4 4z" fill="#1977cc"/></g></svg>